<mxfile host="Electron" modified="2024-05-17T12:03:36.618Z" agent="Mozilla/5.0 (Windows NT 10.0; Win64; x64) AppleWebKit/537.36 (KHTML, like Gecko) draw.io/24.4.0 Chrome/120.0.6099.109 Electron/28.1.0 Safari/537.36" etag="LOcg3_uKqwLlCwa8pGF9" version="24.4.0" type="device">
  <diagram name="第1頁" id="35Uv-e-9lRvTRcjUk7GW">
    <mxGraphModel dx="1434" dy="844" grid="0" gridSize="10" guides="1" tooltips="1" connect="1" arrows="1" fold="1" page="1" pageScale="1" pageWidth="827" pageHeight="1169" math="0" shadow="0">
      <root>
        <mxCell id="0" />
        <mxCell id="1" parent="0" />
        <mxCell id="aojNN7IkyULRY6MoOH4E-1" value="題目: 是否是合格的BST" style="rounded=1;whiteSpace=wrap;html=1;" vertex="1" parent="1">
          <mxGeometry x="51" y="31" width="725" height="60" as="geometry" />
        </mxCell>
        <mxCell id="aojNN7IkyULRY6MoOH4E-2" value="只要符合Inoder的由小到大，則一定符合這個BST" style="rounded=1;whiteSpace=wrap;html=1;" vertex="1" parent="1">
          <mxGeometry x="416" y="138" width="348" height="60" as="geometry" />
        </mxCell>
        <mxCell id="aojNN7IkyULRY6MoOH4E-3" value="Recursive" style="rounded=1;whiteSpace=wrap;html=1;" vertex="1" parent="1">
          <mxGeometry x="428" y="225" width="120" height="60" as="geometry" />
        </mxCell>
        <mxCell id="aojNN7IkyULRY6MoOH4E-4" value="While" style="rounded=1;whiteSpace=wrap;html=1;" vertex="1" parent="1">
          <mxGeometry x="618" y="225" width="120" height="60" as="geometry" />
        </mxCell>
        <mxCell id="aojNN7IkyULRY6MoOH4E-5" value="" style="shape=image;verticalLabelPosition=bottom;labelBackgroundColor=default;verticalAlign=top;aspect=fixed;imageAspect=0;image=data:image/png,iVBORw0KGgoAAAANSUhEUgAAAXQAAAEpCAYAAACDc9l6AAAAAXNSR0IArs4c6QAAAARnQU1BAACxjwv8YQUAAAAJcEhZcwAADsMAAA7DAcdvqGQAADfYSURBVHhe7Z0PeBXVue5fBAH/BUGDoKFYIlGCIkFFAq1EbQM+LcI5FttrN/T0AOcUYnsNPj0i1xqw57HQe5r02hKfVrg9B3a91pQKcloxtUq0IVAVFDQoGBSJRo2SGkXFgr3zrj0rmT3Ze2fnz94Jw/vLM9kza9aaWTN75l3f+tY3e/ocO3bs75988gmEEEIc35x09OhRd1YIIcTxjARdCCECwknupxBCiOMcCboQQgQECboQQgQECboQQgQECboQQgQECboQQgQECboQQgQECboQQgQECboQQgQECboQQgQECboQQgQECboQQgQECboQQgQECboQQgQECboQQgQECboQQgSEPocPH/67O58W6uvr8bvf/c5MnM/KyjLpV155Jf7xH//RfAohhOg4aRN0iveSJUuwbds2s2yFnJ82jXA5HA63rBdCCJEcaXG5bN++HQUFBUa4J02ahF//+tfYsmWLmSjer7zyipnnOgp/KBQyZYJHHcL/OhmXXb8cW5rdJCGE6CZSLugU6G9+85tm/nvf+54RcOtWWb9+Pe655x4zby1z5mGZ2267zXy2TyWWjx6N0b7psqtvRNFPNqHuiJtNCCECTspdLrS2aZnTKvf7x2m1E1rnXij0FHRa7BT5xFDQixAeX4jQuKFu2hG8s3MLKnc3ImPMIvz8oWLk93VXpYHm6jVY9qsKDLpxM0oK3UQhhEgxKbXQ6TaxbpaODHbecMMNpgzLJu16yZ2Jkh+UuNPdWPW7J7Dx1nxgTzn+76+TsfS7j8Y9VdhUVecuCSFEekipoDOShaxYscJ8dgRbxm6j4wxA7oIQpjlzW+pqI0lCCBFgUm6hk85ErNgyXRoc7UtZ9+P63Esq3WUvsdbVYc0cJ23OGtQdq0flT4owc3LETz952gIsf8Rj/e9dg7lO+vSVNWYxXBTJN3r0cmfLxN1WyzLxbP9ILSrumIurJzLPZMz8fhi1ZgygGTvXLsXcqy8z27vs6rnR+/XSWIPwHQsw3a0jxxIWr65B4zF3vRAisKRU0DmoSddJe8Qb/EymbELq3wG3nHXaGZHlLtGMLXcVYdXeobj+1lLcfdtsXPDBFoS/Nx8rqt0swwrwz2WlKPl6rlks+E4pSp3l0rLrEUlJRD3C/1qETZiKRXeWYNE1majfsBxz7qhAzeqbMf/XjchbsAylyxdhQn9HtL37tTQ5DVJoLsqqj2DCP9/t7LcE8y4fiG0r52LOXZXOEQghgkzKo1wSwQeJKOYcOLXRLl64LrlIlxgca0TlfWFsGZyP0Kx8N7ELbCtHBYqw7heOSN4wA7Pn34215YuQ51jYFRs2RcQyIxsFX52B/PMHmSJZl8zADGd5xlfz0G4fZVsYdZNWYe2/z8Psr4ZQ/It1WDYrA80bHMv8l2dj2QP3ofgmZ1s3FeO+le5+K709CadBuON2hIcWY93mtbh7/mxnvyEs+t9rsfrWfNTd/yOU+xsAIUSgSKmg08JOJMgMUVy5cqWZp6AzssULyybtrqndiOU/XO5OizH3S9NR9MehjqD9HPNy3DxdYgaKbi1EhrtkGF+A/DGO7V5/0PQEuobTSNzkteMzMHXKVDOXe9MczBhsZiPY/e4/6Mi6y+6H8bCj76E5i5Dr8zPlzipEoVPDHbs1liBEkEmpoJ933nlGlBP5wRnRYuPPGa5oGwBbJunomOcqEV4bdqdNODhyHtY+thbFU6MkuPNcfgGy22wqAxk0xp9p7Lqgx9h+xqkRS3/shXnmsxV3vx4ad7+InU4/odVv75m+GPHZ72zoerMjhOi9pFTQ6VIhP/vZz8xnPGiFU9D5xKi1yG0Zu412uWkV9u3bh30vvYDNK2Yjo7YMNy9ag9ruGgzsNyDGAGs3kmD7A5KIoW/+6APnfy5m/8D67WNMM9r35Ashjl9SKui0rm08Oa3vZGHezsSvG/oOQPYNd6N0YT5QXY4Vvzox3AwR0a/HgCzrt48xXd7xaCMhxPFDygdFGU9Oq5sWd6yBTz/2KVHy3e9+13x2huxvl2DRFKDmlyuwZo+baDgDA0Y6Hwdi+L33enzSXSAZi7q7ycrJRRaasWPXTjdFCHGikXJBp5jbx/cp6HzcP5ZPnb5zRrtQzFkm1k8FdIxszLttHvKbalC+co1HqMdiLF3S1VV4OErom1G5NoxIBHnXyDov23y+/1EaAwUnTcW0UUDt/WW+BsyBET+/quiGgVshRG8m5YJOrKjbqBf+WBeFnRNF/IILLmj5NUabt2ti7jJmEYqL8tBcXY7lv7KSnoGp14Ucua9B2by5WLq6ApvWr8HSOdNR2rcA3fLTK7nZKHA+Nt17O8rXb0L4h+WI/rWaFNA3H4tuDSHXOa4V35qJBT9cg4r/dva9yo34ebwZ+p0yIYJNWgSdWKHmD3ExsoXLFHcr4hwUtT+ry+XuIu+7xZg3qhk195Yi7JqoGdeUYPU9IRSc8QoqVi7F4p9UoDFnGVbfmQ/7815dIiuEEmf7+Z9uQ9mSxSjfGeuJ1e4no7AEDz5QitA44JVNK7C0eDHKfluHAVOKsbZ0ntOICSGCTNrfWCSEECI1pM1CF0IIkVok6EIIERAk6EIIERAk6EIIERAk6EIIERAk6EIIERAk6EIIERAk6EIIERAk6EIIERAk6EIIERAk6EIIERAk6EIIERAk6EIIERAk6EIIERAk6EIIERAk6EIIERAk6EIIERAk6EIIERAk6EIIERAk6EIIERAk6EIIERAk6EIIERAk6EIIERAk6EIIERAk6EIIERAk6EIIERAk6EIIERAk6EIIERAk6EIIERAk6EIIERD6HD58+O/ufEo5sr8S4V9vRNXTtXhxTz2anbSMrFyMzS3AjO+EMPuSzEjGODRuC6N8XSVqdtagrtFJyMxGfl4+CucsQmhS4rJCCHEikAZBr0flD5di2doaUIdjk4mCpatx37dz3WUPxxpRefd83L621jQCbclA7twfYfXSQmT2dZOEEOIEJA2CXonlo4sQ5mxmLgqvmYChA7jwPuoe2YSaFpXPQ/HvHsSiS9xFl7rVczF9ZU1kYXAuCr4+G9dfOAjvv/wwKn6zBbVNkVX5t23G2vnZkQUhhDgBSY+gT1yF9/9lCW7/dn60FX2kFuXzZ6JsW2Qxa8FaPPFv+ZEFcswpm+80Bka0szD7no24+7oMs4o0P7IUM79X4fQBHAaHsKqmBIWy0oUQJyhpGBTNxuw1D6J0vk/MyYBchG6Y4S4A9bW1EXG21B1EnWuBY+Q0zPCIOcm4bgamjXQXmupwsM6dF0KIE5C0CHruJcbHEpOMUwe5cw7HHKPdnTV4i506AAPd2VYGYsCp7iyJvxshhAg8aYtyiUfzhsW47PubIgtfX4V9/14YmTfUonz2TJQ9x/kYPvbnynDj7HLs5Pz4YmysWIQYw6rR7Azjzof2Iucf7sKsfr/Huke2o+FDJ73/YIybuQBfu+R04N0d+O36x7DrDa4ATh85BbO+Pg05ziovjbt/jw1/fB4H//qJWe53aiZyrgvhG5cONstCCJFOejgOvQ4V610xd5hx+SR3zpKL0MKQY+OTnVjzv5aiYm/Ehj+ytwKLb3PF3MnBfO2KuYePa8O45/f7kXn5VzBtcg4GH23CropybNy9A+FfbsD+gZdi2lenYUr26fjwQDXCa6tgvT+kofJn+FnFdjT2H4UphV/BVwquxPD+jWhoiIi7EEKkmx600Jux86c3Y/6qmkg44qh5WPuHJciPMajZXFWGm28v90TEeMjMx6If/RzFU6P963FxLXQ4Qjzrln/CBGt1123Ej//rWdAmP/3yf8K/XT8qku6kVK/5MR49MBhTFhZj2nCm7cfGFf+JZ/tfiYWLvwKTZDiKD5uP4vSMts4hIYRINT1koTdjy4/nt4r54DwUr4wt5vSq17/rKPmA2IKdMQBoPFAXJ0Y9PgPHXdUq5iT7Elxo/PEjHIvbijk5HZeNGeF8NqHxrUhKC59+jA8+c+cN/STmQogeI/2CfqQW4e/diAX37XTFPBehf1+NRePNWh/NqCyZiZlLKlBT34yMMTNQXPYgNj+1GQ+WLcHsSZlorq9BxQ9vxI0llR0S9XPP84o2OQUDqcVnnotRPk0eeMop7pxlFCaOzwQ+2oXwT8N49PkGfBIl7EIIkX7SK+gHNmHp7DlY/ogbX5hZgCVrHkRJYRx3SVU5fnS/m3dSMdY9VIpFX81D9rBs5H11Hu7+z9VYMiVStu7+27Hsv5OX9H7xjvykfu5MYoZPX4jvfjUXgz/ai+r19+Luu8oQfnyvcdkIIURPkD5B37MGC/7HYlTsiYhu5jXFWLvxPsxLENK45Un3oSGHGTeEkOt3yfTNxbybrkdE0puxqaqqw66XztMPmRO/geI77sR3b5iCnIwm7N0Sxj0Vte56IYRIL+kRdEfM535rBbaYQU3+9soqbCxfhPyEv6lVh7q9rfI86NQ4Vvz5WRjrzuKtdxL8XkyqcIT90mkI3bIQVw4BPnlxB3a5a4QQIp2kQdDrsGZlOWpMzF8G8otWY90PkvkhrYyocdD3P4pje79Wjxfd2fTxIT70V+ekwTjzDOez30BH4oUQIv2kXtCrKhCudtVv0iKU3JLnukjaI9P8PK5l0/owaqMeI3Xgb8GsC7e4WfIm5bsx66lmLzb8x5348S8ewKN/3o7tf/kTfn/fPXj0gFPry6d0KB5eCCG6i5THodf8+GrMvc/1hI8vRGjc0Mh8TDIxdcEiFAxzF5u3YPnsBQjvjyxmZOVj2jdnIH/YQHzy1g5UPvwwtrg+eQyegdJHSzGjvYc0PU+KhvLcNEMDHv3pvajGFCy8ZZonttyhTZkm7Fj/AKpebkCT+xzRwDOHI+cLX8OsiZmy0IUQPULKBb2yZDSK7ncX2iUfS36/FvNy3EXCyJjvLmsZTI3JqEKU/HQVQmPcZSGEOAFJX5RLZxk5A3c/tBkbVxRjxtRcZFkLfHAWcic5Fv8P1mLrwxJzIYTo8R/nEkII0T30fgtdCCFEUkjQhRAiIEjQhRAiIEjQhRAiIEjQhRAiIEjQhRAiIEjQhRAiIEjQhRAiIEjQhRAiIEjQhRAiIEjQhRAiIEjQhRAiIEjQhRAiIEjQhRAiIEjQRYrgG6DuxJ13OtNPH3WWRLLsWOecs3U73KXeR2+v34lM6gW9cjlGjx7dZlpe6a4/DqlbPTdyHHPWoM5Na0NjDcr/dTJGlyR3oI3bwlg6fzomc7sTr8aNRWWoPOCubKESyz3n0DtFnc+mnVjz/ZmRbU2eicWrd7a8d9XSvGExLptdhp3H3IRuxX2d31mzcNddd+Eu/yv9TkQaHkWZ07iFd7rLKaJhc1mkEfVNqd6v6B2kyULnq+X2Yd++yLT5tnyEi1Ip6hHhS8n2mzZh1S9r3IUYHGtEzdqluPErc1H2eKObmJhmp9GbM2c5KqqakVk4A4UjnUajshxF/7IclU1uJvLWO3iHn3xb0yW5UdOAASaHQz3Cd8zHitcm4PaHN+PBm7NRu3I+lv23R9KbKrHi57WYfUsx8vq6ad1Jwy7UHgJyLp7gJoiYGJEvw6Pd3n3JwSw2pHb6hxzsfehOlG3u4I5SVj+RKnrE5ZI9vwRLJgHh6uPNTG9G5U9KsQkZzl8MDoRR9MXJmPvDCsdyj5kjBo4l/+Owkz8boVWbsXFVKVZVPIF1TqOXsT+MH927xc3n0HwEH/DzwhBKf7cRGz3Tkqkmh1OHR1HpnNbQghLMGJONvJuKMHtSMzY9vc3N4OzxvlLsmLoEi6a4CSL1DJ+GYkdco19MnibyQpg12mnHX9ol11fAkQ+9AzRXlqH0N8Dsfw5hrJsWxZEjwHmFWFS2Gev+JWaOtuytRS1dK5dfj9mFrY1A7o2zQY2uf3ybI/k+Ro1w5D8OThXg1C7rfLPkkI0Ro9xZ8lwZyionYPHNBUk3OeL4Z8LFOcChRgl6wOnnfqaZOtQ7BmP+1LayVFkyGkX3uwsOoVX7UFLoLhjoTilC2F0y3LQK+5ZHMkWVLxodydeyvg5r5kzHilZjFfm3bcba+XHlsZX6MG6/I4zGWaVYcs07uPknbrqXnHmOdT3PzNatNh+dJ2MABvHzQETw80c686/VtxX3mBxEI+9c5x7mMR/c72wupz9wrBblPwkj6+YnUGhftt0hXN/4IXeRjJ6Fu+a0ulY4YLZhX2S+yenm3/mQU41/iG2Z0t9779ZMzLorhCjnzM6wU64RUxYWY5p1vpu0ve4CoVvBW24HwnduQGuO2Ovh1CX3BbeOLXX3l41f55h1s+cFU7DQO15g8iJSD7ov7q1Gptlu9HmsvvdOpywwePJCFE/3jDa4ZazXrc36TmK+o/d8dTVEzkPj5NnIfamim+rX/jXj/W6ufZvXRMsWfedZtEePWOiVJY4gT1qCkighpdg6Yrx/CTa7vvZ9q0JtfO11qx2JdkTe+uP3/X4J8u8vwtzVkeHJwuVMX4WQM8/GwOTxivkoR9w9ZZOQciOEa+4oQ+XgEH60dEb3WrbDhuJsiuszW/DoM8a8NjRX1rSKd2tyBOd4zWCoO3i6ab8nQ04Bpk6qR8WvylCzvxG161ehYls2Zl9TgLq1KxDOKMbiWZ04AuNP9Qx0mmkWcvZtiIpimTDHSV84xbkVI6LIfF12M7SIqN3vXcaF0IKpG4VooWf9Xmy4M+xIRTSNVWWovdjdjkfMvWXpc45LXq7TVDSh9nmvrduARgrWoVrs8iTveMFpIkbnRjdWhuGYdouzH3OeKFqR/UaJIc+r0xv8hqdOTVvv7fTgpqnLkEwj4BFrPbqupGFzldOo5WDq9Eu6p35JXjMW+vkfwDda8s4a3eQ0Jm2/QxGfNAl6DVZ8pTUio+j+fCz5wbxoMa0MO5azL72wBKtuAsLrWqNJsuevjbbYHas45OSpORg33sQl0isITfEUdspGNyqxaEblXYuxojoToVuLO2nZJiBjBubcRMXbifL/cTWmz1+MxfOnY3rRFhyhVe6h+aMjyC+cjdDcEGZMzUV2v3rsrCzH4m8swJoW8zIb80rvcxq0h3HztMmY8/N3kX/PaiwZGYaTjHn/czaa1y7GzMn8Li7D1f9Uhi3egdc47HjMscTaWFYTEOJNf6gaf0phFEXD242OGOVinEdPJsxptb5N3YZMwTc8gjNhjiMcjjxV+QYCm86aGt3ANDSi0RGt3Es9G88LJWiEJiDX74/eWYu9Q3KQM6QJjW+5aY4M1Tq9gM4PDDs9DK8FnXctpgxxRO+Fjssbe0Ib9jnC/HV3e2Zbjlg+5t1WA3a95FwIMRugWLRfvw5fM05eb6Mx4UtsUPaiVhE6SdMjUS77fj8VVRR4T0hfZbVjed8UwjyfcZQ9Ih/YVt8i6BEi1nxrA+Ek7T/oy+MnG1kciC2a6xG/9qldfTNuv78R+beVOg1JarzOebesxoO3zUBe1hHUVW3CtkO5mPf/SnD9qVx7Bga4u82YdTfWrrobJT8oQenqjdj8xEYUT3FWNtUgvMHjjMksQPF/PoFnnXP97BNOA3hdBjb9nzJ8MHcJZr+2AkU/rEX2rRux9eElyGsox60lFY6oJSKBOA0fh9xOCk2yDD8n07Eoq3FvzNhnt25T/e6D4ch06tVkfE+tDM6MzoXhmch0LO6OWIJ+fzSt38EXXYvcszznwW0oModFFjtMG2F1jsfZPt5Lxg/O3klryGLEreV1XQzHuIscy2Rfbesxm8gkR/S/lGQD1G79On7NtMlrvhunV/V2+0csIvTMoKhjGa9dFQLuD7viGvHztrgSPNP0ldFeY/rIR4+ejqqpm1saCFrx7eNYruuYt7W3YN008alEhbP/ZuevZuXM1np9ZUXEHbJtBaZzOclY8/hkIG9+KR584llzPFt/V+o0bB/g4B5n1cgRyI4nCgNyseim681s/e7auA1a8yMrUPpaCMULcrHtyTDqC0O4/YZcZI6Zjdu/Veisr8E2f6C6FyNOPYhjMZvuP7vqRqQ84uvWjd11K2CRyee3dck8xyfotBjvWuhYl60i2K5bw7hdrOVI4YpY+EboXZFseL7W6TVE9yrShy9s0T9G4TD80two67fb69vT18wJSs9FuZyf5djtFjcSg4OXrkhHTyUwjpLK5RF3jWPtJzWQGYOIj92ZnAalZuX0dsS4Pwb44r3NNCYr4ke38eCn9Te5u5Pmx59AlfOZdc0kz3mKwTHXf54xILZv/1gNyn+6AwUL5yGvr9NwMqLm7KHG8iGZzjzwLt5pcRXEwLWUuhtjeSeLG/Z3V4v4uvHRbt2sv77NFNXdj4fr03byL5zsyFy7MdsR699YmMbd4gqhEXpHyBoi7ovBF41zcvZSnPM5dbS1klNQ3xRdMyIxPSfovogN41q5v8axiTtKJWo8UTFJU1hiHnBK7KopwBJfvLeZ/sMNW7Tx4P9WYHJ3lubGxuhxzwObsOzeTU6/IB+hr7Vuu35/XXS+I7Uo/82jZjYvd0LMG2jnzxzhu2Ixiq+h3GdiKK39j444247Q+O47TsPkNKgJ20ePgPnp8kNEFEB31sUM4MWF4kv/uPVXJ6hbJxg+vTgSs+2vVBSuy+K9Rjxq3C1WCFkXDpjuQuMhn1++F9LSo9j5J6c3w8HQ7qxvKq8ZEY+eEfS9azC3KNpnnj0/hBDCKPI/Tu9Y5S1RLsaqr0HVk605TMSMO9+K6y+PenCpEsujrPE6bKlympREMd2poHkLll9/GUZPXoCwq1uNG2/F5KtnYsH3l5sB0clfWoxN+zNRsHRJ1JhC7X85666+EUV3OOfk+wsw3SlTVt2MjClLsOw7uW4uD3vKUXZ/FhbfWuha7xmYOmUGMjaswrL1tWjcU4Ef/Vclsr9WiMKET4w6Ivp11+UR5cfegTDD1kbP6lwkixsxUu00Si3yuTPcEvZoadgcjn5akVZxi3/aqdtUCtOGNlb1jnVJ+MUbHkU4qlzE99vG1+7DuCwO1aL2Pa9wR4S+6SXn3CbjvnD999ERM2nEdR1VVTXGHgztUv1SdM2IhKRJ0KOjXOiDzmZIoRs7HqEQJfs2Ywlcv7Sd1mUhZLO5vnfjKnHX10yJ5UPPxrw59NG7Pnkr5FE+ejeEMaoOPUPGKOdmOqMZOzaEsanKEeips1GybiPu+3a0SGdlF2Js/3pU/iaM8IYtaD4jH4XfKcWDv5iH3DaCXIc1K8M445bFmOGJzMmYtQyrb8lG7U9mYvK3ylE/rgSltyZ06kQwLg835KzFT+2G+yXl1ohFa8TDvXabL+TGCBtsNLHQLfv1x4G7PnZsvbc1jzNVZV7bVqRi0BhVLnJMbeOpfZiBvSZH7qKFOyL0TvpZkRDBxEzAtZOdBsDdf4cfze8y7v6d+sa2lrtYv5RcMyIRfQ4fPvx3d14IcYJhHu56KTfGQ0bieKTnfOhCiB5mB/60tZcP3ooOIUEX4gSl9clQyXlQkMtFiBOMyG/o8PFg/+/diOMdCboQQgQEuVyEECIgSNCFECIgSNCFECIgSNCFECIgSNCFECIgSNCFECIgSNCFECIgSNCFECIgSNCFECIgSNCFECIgSNCFECIgnNSvXz93VgghxPGMBF0IIQLCSQ7o37/731ovhBAivRgfOq30k08+2SQIIYQ4PmkZFKWgy1IXQojjlz5/d3DnDZ999hmOHj1qJiGEEMcPbQTdQmE/duyY+eQUJ5sQQoheQlxBF0IIcXyhB4uEECIgSNCFECIgSNCFECIgSNCFECIgSNCFECIgSNCFECIgSNCFECIgSNCFECIgSNCFECIgSNCFECIgSNCFECIgSNCFECIgSNCFECIgSNCFECIgSNCFECIgSNCFECIgSNCFECIgSNCFECIgSNCFECIgSNCFECIgSNCFECIgSNCFECIgSNCFECIgSNCFECIgSNCFECIgSNCFECIgSNCFECIgSNCFECIgSNCFECIgSNCFECIgSNCFECIgSNCFECIgSNCFECIgSNCFECIgSNCFECIgSNCFECIgSNCFECIgSNCFECIgSNCFECIgSNCFECIgSNCFECIgpF3QN2zYgLffftvM//GPfzQTYRrXffjhh2ZZCCFEx0iroFO0KdhW0A8fPmwmYtfZZSGEEB2jz98d3PmUsn//fuzatcuI9umnn47TTjvNiLidp5Bz3TnnnIPs7GyMGjXKLSmEECIZ0iLoFPOtW7ca8W4P63L58pe/bMS9PT766CM8+eSTePfdd3HFFVfgwgsvdNfEh/V5+umnMWjQIFx11VU49dRT3TVCCHH8klJBty4UWua0xkOhkLsmPixDXzrFfNy4ccZ6T9QQeAX9vPPOw5QpU9C/f393bVs+/fRTVFdX44033sDZZ58tQRdCBIaU+tAfe+wxM+hpXSsWijatZO9k/eo2H5dZlttIBjYAf/3rX/HOO++4KbHh+ubmZmOdCyFEkEipoNPC5uQVc4o3LXC6YLyTFX4Ly7Bsfn6+m5KYAQMGmDL19fX47LPP3NRomM71GRkZGDJkiJsqhBDBoO8yB3e+2xk8eLCxnA8ePIi//e1vuOiii9DU1GSWrdhzAJRCTDEfNmyYKUMXDT8nT54c1RjEgts9cOAAzjjjDFPm9ddfx1lnnRWzHK3zPXv2mAFXlvv4448xcuRInHzyyW4O4OjRo9i3bx/+8pe/YPv27WaeFv2ZZ54Z5cqpra01DREbhjfffBM1NTWmDI+DDYYd9GUap5dffhlHjhwxbp6+ffu6W2nlrbfewjPPPINnn30WO3bswKuvvmrcSdyvt35M+9Of/oRDhw6Z4+VYAOvBY+F+PvjgA+N68sOGrLKy0uybdRBCBI+UWugUOW/cuRcKvZ1iiS997yzLbSQLhaxfv37GPx4Lpg8cONAIGgXQDy345557Di+88ILJQ388Gxw2BBRNiqWfV155xTRQbKxyc3ONO4kiy54IxZmCzMHazMxMvPjii2bbXrhPplVVVRnBHzt2rGnIhg4darb91FNPxdwvyz3//PNmP2ycTjnlFFNnCn2s0E8eAxuZ4cOHuylCiKCRUkGngHQWG+1iP5OB4knhZANCq9oLl20vgNZ8LCigtLa/8IUvYOLEifj85z+P8ePHY9KkSaYBoLXuhUJLMWX+Cy64ABMmTMCll15q0inqFHmmsUfA7Z177rmmDl7BpWVO650NByN7WIb56WrixLxsCPxuJPZ0mHb99debweaLL77YNALvv/8+3nvvPTdXBG6Dgs6eC3sPQohgknIf+qxZs4wV7ofC5h8Q9cIyLEuRS5aTTjrJiPAnn3yChoYGNzUCXQ50p9DF0qdPHze1FUa/0IKn4PvrS7cKxZCNAvN5GTFiRJQrhlYyGww2LF7Xh+0Z0Aq3vQMKMl1EjLLJyckx9ffC8rSoaXX7GzYey5gxY6IEmnm5zEbCC8Wcos4GRQgRXFIq6BRq+sO9Fqm12pluB0Tr6upMmteiZxnmoeB3BAovhZOWthVf+p0p1hRZWvGx4P447d27F+FwOGp64IEH8Nprr5mGgkJqoXD7rX26fCjMPBYO1HrhOi8Ud1rz3Eas0Eluh/Vl/f2CTuH275uuK/rVvW4XNhr8Htgo0YIXQgSXlAo6I1coyl4xovVLq5t+Yu/kf5CIZViWU0egaGZlZRlRs1Y6BY3WNdP9VrDl2LFjZho9erRxocSa6Nbwx7jHsvZJvHQvfASA++Q2/WJvodD7GxJCn7l3sJTw2HiMFHNa5YTnkeeCjVyi+HwhxPFPSgXdukysUFth5zL9xN4pVh6W5TY6Ct0mjDOnO4NiSHdLexYqBZgTRfH888+POVEs4wlvZ+E+2ZPwC7aFVjxFPVkxtn5yNmK0zvnAFRuNWJEvQohgkVJBpwuAwkxfOoWaUSt+d4Z/Yh7CQUIr8h2F1it92xQzumxoodJ3nkgUKZosRxcIRTQdsD50zXCfdKv4oSBzgJP1iuWSiQXzskHjoCkHSOl6onUez9UkhAgOKRV0C0WLbhUr0FboLZy3oYv8ZF5a7V2BA4QciGS8OMWQIpcICiGFr7GxscWn74VWPkWyO6G1z4bH+u4p4F7o96fbiHXvSHQKeyK0+tlD4dOzLB/P1SSECA5pucsp0hRoWuqE83SnMJ0T562AM1Svq2JOKIBsKOhyoaAlY+Ey9JAui927d5vfh2EYI4WWD/LwYR+6LrobCjojc9iIcMzhpZdeMr2Kbdu2mQeFWB/GpncElqGLiQO5HJjtbE9HCHF8kVazzUaxWIHhp3ee4u6NdOkq9BvT6k7Wf8yoEf5YF0MIaY1TVCnufLqSceTcVndDy5mx6ldeeaXZj43+oZuIg7DsrXR0MJOWPxsxunIo7sm6a4QQxzdp+z10kV74sBLdTV5XlxAi2MixGkDoP+dgKN0unIQQJwYS9ABCMafLhv55f6y6ECK4yOUSEBj2yIFVxrXzk5Y5f4NGgi7EiYMs9ABBy5y+cw6I8hceJeZCnFjIQhdCiIAgC10IIQKCBF0IIQKCBF0IIQKCBF0IIQKCBF0IIQKCBF0IIQKCBF0IIQKCBF0IIQKCBF0IIQKCBF0IIQKCBF0IIQKCBF0IIQKCBF0IIQKCBF0IIQKCBF0IIQKCBF0IIQKCBF0IIQKCBF0IIQKCBF0IIQKCBF0IIQKCBF0IIQKCBF0IIQKCBF0IIQKCBF0IIQKCBF0IIQJCn787uPNp5Z133sELL7yADz74AFOmTMHZZ5/tronP3/72N+zfvx8HDx7EoUOH8Omnn6J///4YNGgQPv/5zyMnJ8fNGZ/a2lrs2LHDXWof1uuqq67Cqaee6qYAf/3rX/HKK6+YY2D9Wa8zzjjD5B09ejSGDh3q5hRCiPSRVkE/evQo3nzzTezbtw8NDQ0mjUKYjKAz/3PPPYf33nvPTYmGYj5x4kR3KT4dFfTMzEx88YtfNILO+u/evdvUn41JLNjAXHLJJRgzZoybIoQQ6SEtgn7kyBE8/fTTRsz9QpiMoNMS3r59O95//32zPGTIEGMFn3nmmSaNIs/5ZAS9vr4eb731lrsUm8bGxpaGY9y4cWYiH330EZ588km8++67pt7nnHMO+vXrh88++8xss7m52eQ77bTTMHnyZLO+PXhu2FOhlZ+VlWWm9mDjduDAAZx88sm4+OKLMWDAAJPO/b/88ss4duyYWbawkTnvvPPMOevTp4+bKoQIGmkRdK8QUoQodBRiuivaE/QPP/wQNTU1ePvtt3HKKadg7NixuPDCC9sIE0X1pJO6PiRAV87WrVuNW4UCSGE+/fTTzToeR3V1tRFH9ggo5pZPPvkE27ZtMw0Gyc3NxYQJE8x8IryCzl4ALXueo3gw3549e0xd4gk6062LiOLO88zzc+655+Jzn/ucSRdCBI+0DYrSSrzoootQWFiIK664okWE2uPVV181Yk5YnlMsK7M7xJzQ8qWYE1rLVswJhfLKK680Yu0VczJw4MAosWRDRPFNFp4PNgq2FxIPrmcj0LdvXzelLYMHDzYNDic2EBR9nn/2OuK5ioQQxz9pEXRai9dccw0uv/xyIzbJdvtphVr3CK16DnymElrnb7zxhpmnde63ZinoGRkZ7lJbvCLf0Y4Py3L7dPfEK8t0rqf4ewdp24N5OdFKT0OHTAjRQ/TqsEVaytZiPeusszokYp0hkXWeDBw0tdBip0AnC/NyHIDukXhWunVTcQwhkYXuhz0FWuZsCPw9CyFEcOjVgk6fMN0QhL52LtOf/tBDDyEcDptP+rSbmppMnq7AbdveABuPZAYnvVA0GU5pYXRMR2EZ9l5ohceC6RRyhmkm686he+a1114zgj5ixIgONQRCiOOLXi/oFrpfqqqqUFdXh8OHD5s0ftLH/vjjjxvruiuwvI1soXsnkWvFD10ZL730UkuDMGzYMAwfPtzMdwRGx7BXwOPm8XrhMtMp5hwcTgSjYDhAy2nnzp3Gqqc/nWWFEMGlVwu6F8Z/f/zxxxg1ahQmTZpkBvrooiBM53r6wDuD11dPUWUUS7JQzHft2mXi22k1syfBurUnurGgdc6GgJEp/mOhdc59sbFoD7p76JbhxHPEcqzf66+/7uYQQgSR40bQKZCMMGEY4QUXXIDx48fj2muvNaF4hL5vO6DZURhFYwWU4ZN0uSSDDVW0YYdsDFivZEQ3HmwQOFbA+li3Ct0mXKb1zn20hzfKhVFBeXl5Jo2We7wHs4QQxz/HjaDTaqYP2AtF/vzzz3eXIoOG3oHJZKD1SkG34sn9JDNwSL/9U089ZX6KgNASZmMzcuRIs9xZ6ONmo8Jehx0b4Cd94NbH3lG4TR4XPzvbixFC9H56taB7xYs+7Vix5rRoORG6Kjoalsd4cStydFG09xMEhO4PDsba+HiGNxYUFCT1ZGgysB6MSOETshRyPpDFxqsrPnBG0fB8+p8iFUIEh14t6FaoSUct72TxulvolmgvVJEiSzcLXTwUSbo0vE+Tdgd8CIgNC337dJPwk9Z5R8Ig/bAHwt6IolyECC69WtApsNZnHO8pR4oxozgIrdiOiB4FjtavhSKa6IlTiiIfradrh/uxj/enIrbbxppzsJb74nJnoVXO8QUeb1e2I4To3fRqQefgpHWB0DLmrxx6XSoUVhuuyMgOO0BK6ErZsmUL1q9fb0IKY0E/tX2Ih70BNiCJoDVv3Swc+KR13l0/OeCHA6N0M/F46Z9P9qcSCH3ue/fuNROPnaGLTOO5bO8YhRDHL71a0Gn58oe4KLa0jhlNwpjzZ555xrg9KNgUesJBP6+gc7CSP5RF0eZvl9sBRi8Ucwo/oYC2F0HCfdkHnbjd559/3tQl1sSf6LU9h85i3SwdfUiJdWTPhRNdQ2x0+LMJDPlMVQMkhOh5euQFF/QJe3+Gtr2fz6UVToG0DxT5YWQJf/CLVrqFseGcCC1c7sNvndJ6pfgSvpiCYZGJ+Mtf/mKs3mRI5riEEKI7OS7MNQr2l7/8ZePisAOl9JfTKufLJ77whS9EiTmhNcrH95mPceuxXA3eJ1G7c1BTCCF6gh57BZ0QQojuRQ5VIYQICBJ0IYQICBJ0IYQICBJ0IYQICBJ0IYQICBJ0IYQICBJ0IYQICBJ0IYQICBJ0IYQICBJ0IYQICBJ0IYQICBJ0IYQICBJ0IYQICBJ0IYQICBJ00SEaGxvN26I4cV4kx5EjR/Dss8/22nPW2+snkiPlv4f++uuvm7cT+bnqqqvwuc99zl3qvdTW1pq3JcVjxIgR5q3/sV5OzTcyVVdXt3kVnf9tRnydHV8+ffDgQfNaPL4Kj9vlS6j5ajwLXyfH94PyVXjMc/HFF+P8889310bgW5r4Zie+fam7XzfHm/21114zrwXk+05F5G1a/J75XSR67ysFk69Q5DXf0VcKHj16FHv27Gnzxi5ec+3tN1m6Uj/Re0iLhU4Bmz59OkKhkJn4pnyKPMU+FfAVd5s3b+6W7fO9pnxZtX+y7x/lscUSc/Lpp5+ad6Eyr7+sFVuuf/rpp82r7fh2Jb77k9jX43EbhKLPZe7rS1/6knkbE99pal9aTSj0b731lhHcVLw79L333jNvhvI2MqIt/O7ivZi8K/BVipMmTWqZeB2xAfe+eSsZUlU/0fP0iMuF7++kBUrx6e3k5OTguuuui5oKCgqMkA8aNKiNheyFlhVf2MxX5XnLU5CHDBni5oq8/o6v2GM6LXd+0kqiQNP6IxRTNlR8DR8bBZ5DWmZMJ9wXX4bN8+rdtkgtfD3iZZdd1i1Wckdh48+GO9YL0MWJSY8I+vEOXSMUUgp1MuKZ6H2ltLjz8vKi3nnKxoLLbAwo1OSzzz5D//79W6xjztOit7A3Qms/OzvbTRFBh40IrXT23oQgafGh0+/r9Rnbt/7TX0c/sRf/m/X9vnZb1lquhFb0xIkTzXysN/Pb9RS8rVu3GkG20P3jr0MiKLLcBv2ZPKZEgm797x3dB0Wcg45vvPGG2QfdKzyPdLHYfXL/Tz31lOkhsGHhcY8dOxbDhg1zt5I81n/K82MZPny4sT4Ju/T08R87dswsEwrJmDFjjEvKi/X3sqFib8ILu/nchy1n83p9w979Ev++/fulD5t5eA7q6upMmvXxc11DQ4NJI/HqTPx1I3bfQ4cOjaqTdVfw+Lw+dOa3dbBYPzexPmpew7Zeffv2bXdMor1zSs4991xTV14Pfh+4rSPPrd8N2dn6cTzFe6yx8vF87Nu3z/Qm33zzTTMGROw+e6JXE3T6LnNw51MCB/noWuGFYq1LCjwZP368uRAIb6Y///nP5uKlW4JWK32GFG9+0r1BeIHYt/2PGzfOXMgUTlqwvJC5jm/55wV3+eWXm3xMs2JOq5bbt2UpZnRhJAsbA9aBZWkN9+nTx13TFtaBNwYn+jp5A1C8eNHTwo6H3QePmzcJbwCeJ27Hln/11VfNDcL13C7PLW+cjsI68vydc8455iZj48Ht88bnYC4bYd54PIcffvihqcell15qxCGWn57fA8WD+WwDbmG6/Z74aUWK14HdL78nKwqsGxvnUaNGmeNkY8VtcOJ3xv3z+mI9+T2y/nQ5sb5WxFhXihzL0pLldRSr3rRrmJ/rrdBQkNgT4zq7P+6HDS2Pnw0E908BpOiz3jwOnieONfC4eJ2wgWCDZF1o7IHZc8268/7g9mM1NCTeObV1YZ1ZntcD0/x5OJDNNJ6b7qgfGxHmZePHe4D5eN/ymrS9BsJ9c3vMy+vHfod0EfG82nMquo+0nE1eFBykDIfDZqIw0ZrkzWxhGi9IbzobAVrXvFB4oxNaul6LnRcqby5epIlged7QXguWZbn9ZOFFW19fb24sXsTtXYy8Eb1ixGXeDDU1NXHrS0uG4k9YN9sI0m3DRo4i8/DDD5vBUFr+vGl43rif5557DuvXr8eDDz6I7du3twyoxoPHw5vVbxVTmCiC/N64v1RAAWH9eFNbrCASWzc2atbipKCwnuwlef3GPK8s5xVEftcUFivOXMdz5M3jhfvm9+ndLkWH6ayr7SHY88H0zsDj8Z5rCirr39HzzPPDxo6GAcWSx8VrzP+dcZ7b97r0EtFe/fhJo4LXtPccsAzL8jtj3bzw+vJ+h6wnv0M2hKJ7SYugs8X3RrnQbcBwProJLFZYvNYFoZDx5rSCTjhfVVXV0kDwwvbn8cNGgtY5ewe0GjoDhfPQoUPG5eHv1saCVg5DGq+44goz0MmJlhzFmA2YH1raVohZ1ntjEe6Tg6c8h/zkTcpjp5VES42WPV1L+fn5xiqi5Z0I3lDcV6ybPZbAdSdsFClGtB5jiZmtGwXFCwWa9fKKAZetcFv4XfP7oqWeDNay5HVE2FBSdHjOKea2jtwv6836dwZvA0ZiHU88eDz2GQAb8XTJJZe0NFLxGiXef8k2QO3Vj9vm8ceKdGJZv1CzrP/6st8Vz7HoXnqkv0PRprVJUaO4WuuZ4mRF2k7+GHA2Ar/5zW/MjWYbiGSsbF78U6dONY2G7S20J3h+WF9aQKy/X0CSgV1ja4F6bzp26V988UVzk/IGoCjTAmoPNgCsBy0e261lt5oT59n4JLppuI7WV09AEaIYUWz4PVCkvOLLuvG6sOvsxAbZ33DHElg2hmzo+J2x3O7du9tYjn4oSLQ+uW8KOLdJMaLQUxhZnukUx3iWfiqhBewNW/T703ktsK6sI+vK4+Dx+EW6K9gGT/ROesyBxRaeNyKx1jOF2Yq0d6J1z/z06/IG5XJHBhm9UCy5TQ62srHw9hISQRGhQNL36O9FdAQ7Bu0VBPrLOSDFG5b1oiC3B+tC9wz95hRlWkasm4XztHCtqyAW1vrqTnhc1mWWDBQlipMVXzvIx7pxO/yevSJmJ3/vJRZs9JmXxgPPBQeVEzVw3Kd1L1h3C4+Hgsjvn+nxejS9BfZoWEdayawvSdY6TwZvZJXoffSYoPOC44VnoWuFIpVM19ML87NcR6Efnj7o9lw1Ft4cHACjRUnhbQ8Kg99PzvJ0jVCorCiw/rRMKcD+8MV4cNuMaODNy8bFui+8FigFnjdfInGlgJFYbhUeL/fTWfHiOfXWx1qL8aD4svdkyyWqW0fhtuyAcSJBp9HA74GuDZ4/e+wsz2uV6fHcDb0Fayix50s3Zmd7k/Hg9v1uFQsbQZ6/3nx+gk6PCDovNnadvT5z+4AOn5r0CiytchtqZS8UuhcstGz9PnFr8fOCtvACtIONhPtgFEV7omehGFPkaO14LWELLcvf/va3xuqnENIy5m9j/OEPfzC9AEbrPPbYY6butEathUmR4LYpNHS5PPLII1GTjQjywvPB/NwO4Q3L88iGgX50TrTeeX7bE3Q2bLSMve4OHid92zZyo6NY1wUbL4t3YJuw/vv373eXIoN83C/rS6vYHhPrxu/Jwnws520sYsE8XvG2DUMiceN+ebysh1e4rUja79/bu4oFrynrukk39hh4vPF6E12pHxteGjU0KHg+LLx+6I7kdd3e+RGpIy1hi3Qp8ClGCionzrMr7HWb8EbmxUAxYnihzUtxZD5aobyxONEnatczKoY3KW9wuiqYjxNdCRRX5qFFQXGi+Nuy9FnT92zj19uDgkRh4T5Yzg8bFYo1byC7nhc8ew8UJTYovBFYX3s8hDcefeFsANhb8E/cHv3hFlr99AfTVeG9WW1sOn3O3B+fImSeRGGVhD5XCgAbCZ57RvHwOBkR4h+Q5DHy++BNnchVw23yeFgPbo8Tj4HuJlue87ax5no2QCzn9QuzJ8TvlufHbof5eH55LoltDP114sAzGyVbjnk40JxI0Am3wePkubXPGDCN1xAbX4Z3sp4W7p/fLa8vK2QUTF4LbNBYD+vDZhrHUbzleZ6Yzus6Xs+P54x14jVjDaBE2P2zEeJ36P+uulo/1oH3G+8J7/nlmIi3LNN4/XP73vPOdFrz3J43v+g6KX+wSAiRXiiY9iEhNnTixKHHfOhCiNRgXY2dcZeJ4xsJuhABgtY53TN0i7TnXhLBQy4XIQKAdbNw4JmD4cmEdYrgIUEXQoiAIJeLEEIEBAm6EEIEBAm6EEIEBAm6EEIEBAm6EEIEBAm6EEIEBAm6EEIEBAm6EEIEBAm6EEIEBAm6EEIEBAm6EEIEBAm6EEIEBAm6EEIEBAm6EEIEAuD/A1r1oFp28zO8AAAAAElFTkSuQmCC;" vertex="1" parent="1">
          <mxGeometry x="431" y="325" width="171.6" height="137" as="geometry" />
        </mxCell>
        <mxCell id="aojNN7IkyULRY6MoOH4E-6" value="" style="shape=image;verticalLabelPosition=bottom;labelBackgroundColor=default;verticalAlign=top;aspect=fixed;imageAspect=0;image=data:image/png,iVBORw0KGgoAAAANSUhEUgAAAaEAAAEkCAYAAACG1Y6pAAAAAXNSR0IArs4c6QAAAARnQU1BAACxjwv8YQUAAAAJcEhZcwAADsMAAA7DAcdvqGQAADrZSURBVHhe7d0LeFTlgT7wF0FAhChg0HBZkJCoEZCbQIJK1BpoJcpWXSsbqF3ErlD6FOlu0VojtqXYf4U+UvDxwnaLKWopFZdaMdU2qYaAIihgkIQgSCRquMhFBBT6P+8350tOJpPJZGbCSeD9Pc9hZs6c20yG7z3f5cy0+vzzz/8JERERH5zl3oqIiJxyCiEREfGNQkhERHyjEBIREd8ohERExDcKIRER8Y1CSEREfBO364QqKirwpz/9yUy837NnTzN/xIgR+OY3v2luRUREvGIOIQbOrFmzsGbNGvPYhg9v7Tzi47y8vOrnRUREYmqOW7t2LTIzM03YjBw5Er///e9RUFBgJgbOtm3bzH0+x7DKyckx65x+ypH33QwMvWk2Cg66s0REpEFRhxBD5d///d/N/e9///smdGyT2/Lly/HYY4+Z+7YGxGW4zo9+9CNz27B8zE5JQUrQNPTaf8O0R1ei/Ji7mIiItFhRN8exVsMaEGs/wf09rB0Ra0FeDCeGEGtGDKbwGELTkDcoCzkDu7nzjuHTDQXI31SFhMum4jcvzEB6a/epU+Bg0WI89NtlOO/fViE3y50pIiJRi6omxCY12wTXmAEHt9xyi1mH60bcLJd2M3J/kutOc7DwT3/HizPTgS2L8D+/j6RGFT9VWwqxsrDcfSQiIrGKKoQ4Ao7mzp1rbhvDrmO30XjtkDYlB2OcewXlJYFZIiLSIkVdE6JoRrrZdWIaoNCaURTM7UPKzXcfe4V6rhyLJzrzJi5G+YkK5D86DTdnBPqdMsZMweyXPbWs0sWY5Mwf+0ixeZg3LbBcSspsZ8vkbqv6MXm2f6wEyx6YhGuHc5kM3PxfeSgxfVoHsWHJ/Zh07VCzvaHXTqq9X6+qYuQ9MAVj3WNk39i9Txej6oT7vIhICxRVCHFgAZvVGlLfAIRI1g2r4lNwyz3P7RR4HJODKHh4GhaWdsNNM+dhzo9uQ79DBcj7/l2YW+QuclEm/mP+POTenmYeZv7nPMxzHs+bfxMCc8KpQN53p2ElRmPqg7mYel0iKlbMxsQHlqH46e/hrt9XYfCUhzBv9lQMaesEjXe/1n4nRHMmYX7RMQz5jznOfnMxeVh7rHlkEiY+nO+8AhGRlinq0XHh8OJUBhAHL9hRcl58LrIRciGcqEL+U3ko6JyOnPHp7swYrFmEZZiGZ55wCvZbsnHbXXOwZNFUDHZqMstWrAwU8AnJyByXjfQ+55lVeg7IRrbzOHvcYDRYF1yTh/KRC7HkZ5Nx27gczHjiGTw0PgEHVzg1oCcvwEPPPYUZE5xtTZiBpx5x95vvrbE5IfbAfcjrNgPPrFqCOXfd5uw3B1P/3xI8PTMd5Ut/gUXBoSUi0kJEFUKsyYQLEQ7HfuSRR8x9hhBHxHlx3Yib8kpexOyfznanezHpa2Mx7a/dnEL4N5ic6i4Tk2xMm5mFBPeRMSgT6Zc5daSKXabGFRsn2CZ460sJGD1qtLmXNmEisjubuwF2v9t3OVHk2vR/+D8nk3ImTkVaUBtk2vgsZDlHuH6T+sZEpGWKKoR69OhhgiRcvw5Hwtnrgzg024aWXSfiUXXv5CNvSZ47rcSu3pOx5NUlmDG6VmxEb1g/JNfZVAISWOlZVxV7CIXYfkKHQI3q8ksGm9sa7n49qja9hw1OfaymH8ozXR3og9pQGXtUioj4IaoQYnMbLViwwNzWh7UdhhC/OcHWfOw6dhsNmrAQZWVlKHt/M1bNvQ0JJfPxvamLURKvDvk27UIMcoijMNtvF8E1TgePHHL+TcNtP7H9UCGm7IZ7pkREmqOoQoi1GHu9D2s5keKy0VxfZLRuh+Rb5mDePelA0SLM/e2Z0QQVCKoKtOtp+6FCTMMaP0pRRKQ5iHpgAq/3Ye2GNZtQgw+C2W9LoOnTp5vbaCR/JxdTRwHFT87F4i3uTKMT2vV2bnaG6Mcp9fSxxCCSmku89UxNQ08cxPqNG9w5IiKnj6hDiAFkv3qHIcSv6gnVR8S+II6SYwBxnVBf89M4yZj8o8lI31+MRY8s9oTL5bicXSxFhfi/WuF0EPlL8hC4wic2PXskm9sDR07hoOiRozGmL1CydH5Q6Do4UvC3y+IweEJExB9RhxDZILKj5fiFpgwjTgyefv36VX/Ltl02tgByXTYVM6YNxsGiRZj9WxtDCRj99Rwnoooxf/Ik3P/0Mqxcvhj3TxyLea0zEZevektLRqZzs/Lx+7Bo+Urk/XQRan87XhNonY6pM3OQ5ryuud++GVN+uhjL/uzse6E7UvBvB6HvchWRliqmECIbLvyyUo6I42MGkg0eDkywP/HAx/EyePoMTO57EMWPz0OeWxVIuC4XTz+Wg8xO27Dskftx76PLUJX6EJ5+MB32K1Bj0jMHuc7204+vwfxZ92LRhlDf3BB/CVm5+MNz85AzENi2ci7un3Ev5v+xHO1GzcCSeZOd4BURaZni9suqIiIijRVzTUhERCRaCiEREfGNQkhERHyjEBIREd8ohERExDcKIRER8Y1CSEREfKMQEhER3yiERETENwohERHxjUJIRER8oxASERHfKIRERMQ3CiEREfGNQkhERHyjEBIREd8ohERExDcKIRER8Y1CSEREfKMQEhER3yiERETENwohERHxjUJIRER8oxASERHfKIRERMQ3CiEREfGNQkhERHyjEBIREd8ohERExDcKIRER8U2rzz///J/u/agc256PvN+/iMK3SvDelgocdOYl9EzD5WmZyP7PHNw2IDGwYB35mJ0yDXnuo/rkLCxDbpb7QERETisx1IQqkP/TSbh2zDTMXZKPYjeA6GBFCYrzF+H+b96MKb8tcecGOeEEmHtXRETOTDHUhDw1mcQ0ZF03BN3a8cEBlL+8EsVVvE+DMeNPf8DUAe5Dq3QxJt04F8W8PygLOQO7mdnB0sbnOrUp94GIiJxWYguh4Qtx4O5ZuO876Uhs7c6mYyVYdNfNmL8m8LDnlCX4+3+nBx5YnhAaPPNF/OE/0wLzRUTkjBFDc1wyblv8B8y7KyiAqF0acm7Jdh8AFSUlqHDvV6uowHvu3fZtTBVKRETOMDGFUNqA+sMjocN57j1HqP6fr1Ddh9SpQ4J7T0REziQxj46rz8EV92Lof60MPLh9Icp+VnuIm/f5uIyA25CHB18oReq/PozxbV7CMy+vReVhZ37bzhh48xTcOqAjsGc9/rj8VWz8iE8AHXuPwvjbxyDVecqratNLWPHXd7Hrs6PmcZsOiUj9eg6+dUVn81hEROKjia4TKsey5W4AObKHjXTv1ajas8e9B+RNS0FKSmDKGHMzpjywGPnboxs790VJHh57aTsSh92IMRmp6PzVfmxctggvblqPvCdXYHv7KzBm3BiMSu6IwzuLkLekEPvddakyfwEWLFuLqrZ9MSrrRtyYOQJJbatQWRkIJBERiZ8mqAkdxIZffw93LSwONLf1nYwlf5mF9KB+o/KnJ2HsI2ZsXD2SkTV7HhZOiHDAglsTghMe439wJ4bY2k35i/jl794G6z4dh92J/76pb2C+M6do8S/xys7OGHXPDIxJ4rzteHHu/+LttiNwz703wswyvsLhg1+hY0J797GIiMRDnGtCB1Hwy7tqAqjzYMx4pG4A0bFOyciZlIOcKbMwZ34uZjj3s0cno+bS1nLk596LuUXuwwi1H3hNTQBR8gBc0oF3ejk1GxtA1BFDL+vl3O5H1ceBOdWOf4FDJ937RhsFkIhIE4hfCB0rQd73/w1TntrgBlAacn72NKYOMs/WkXZ7LnJ/4kz/PRm3jcvBVOf+vKdXYfWr85BdnRXlWLw0D9WXHEWgew9v0NA5aM/8OL87+gblSPtzznHvWX0xfJATg0c2Iu/XeXjl3UocrRVGIiIST/EJoZ0rcf9tEzH75fLA48RMzFr8B+RmRTHqrXc25j0yFYPdh8gvxwb3biTa1PeKzmrj3gkvaew9mD4uDZ2PlKJo+eOY8/B85P2t1DTniYhIfMUeQlsWY8od92LZlsCA68TrZmDJi09hcpjh2w0adDkud++yNrSr1L17SrRB4vBvYcYDD2L6LaOQmrAfpQV5eGxZPV8/JCIiUYsthJwAmvTtuSgw7WUJSJu0EC8umor0+r6zNCqd0M6Xy4icMLpiDHJ+cA9GdAGOvrceG91nREQkPmIIoXIsfmQRis345gSkT3saz/wkq+63J0SjcD0K3Lvo3QvJF7n3m9xhHLZX0Fpndcb5nZzbNu2dWBIRkXiKPoQKlyGvyC2xR05F7g8GO1EUqWIse7oYVSfchx7Hti/DvXMWV3/Nz+B/vQlB3zrXhEqx4lcP4pdPPIdX3liLtW++hpeeegyv7AQSh42Cvt1ORCS+or5OqPiX12LSU25UhPkW7IBEjJ4yFZnVNRr3G7jNt2+nY8jgy5Gw/z1s2FCMgvySmtFwfXOw8LlcZEXyRQWeb0zIqR7VQJV45dePowijcM8Pxniu/XHUWWc/1i9/DoVbK7HfvTa1/flJSL3qVowfnqiakIhInEUdQvm5KZi21H3QoHTMemkJJqe6DyP4QbuEy27DQwvmILu3O0NERE47sY+Oi8pI3DZ3BrJHpyHZO4ghMRlpo7MxY/4qrH5BASQicrprsi8wFRERaYhPNSERERGFkIiI+EghJCIivlEIiYiIbxRCIiLiG4WQiIj4RiEkIiK+UQiJiIhvFEIiIuIbhZCIiPjmlIXQ+v3r3XsiIiIBTRZCL+1+qVbwfG/dtFqPF5c/7d4TEZEzVZOF0Dv7N+Dnm3/mPqqNgfSX3X9xH4mIyJmqyULoP/pONrfBNZ7KLypNjejH/R9w54iIyJmqSX/KgYFDSeckmeAZ0nlIrXki4bm/irvPudslxC/jSr3WP/MgVmA8Hp44xJ3TvDT345NTJ64hxGa2wZ0HY3LyXe6cOMmfjZRpdX+HNWdhGXKz3ActxN7KpXhy+1KsPrIXe53HXVv3wa1pz+Lb1T997nFkHX63YSaeaDsbq6/MdGfWr/a2O6H/uWMwof9MZCa4CwQ7sQMr356JBcey8eTVd6KPO9v4Yh2e3fgLLD24G3tbdUdW9/vww7Rh6Og+TYfLZ+Kbu/pg3jXT0T/udWo3gLqqoKpW+QrmP16ExDo/YV9XLIV85ar5eHz1fvdRjbo/nR89hZBYMRUdrNWwuY23tplt8fbFTTTogD8RXoayssC06kfpyJuWgtn57tNxx58gj+/2S7dMwZ2bF2DlkUPo1CEDt5w/DEn/3IE9x9wFrJN78fbW+3B30XQ8ceS4OzO8wztzMd3ddtdzM5DZFtjx+R9x/7pcFHzhLlTtOHZ88Ch+WHgHfnFgNw67c2vsxvIN07Hgi/6YPvhZPNkrFaUfTcevth9yn3d8kY8FO7YiO7UpAshRuRElTg0otb8KqbAYTA/OxyuBBoY4SsX4hx/Gw3b6V+cz8MKDmL+qkTtqsuOT00VMxYcNHdaAaPlVfzK39QURl/v5e7UHK3C5W17/Zq2Rc5FIvisXs0YCeUVNlkLx9ekC/KpiM/a2zsKcUYVYOupRzLxyAZ68vhDTe7rL0IGluP9v4zD9wwLscGc1bDV+uy3fWb4rbkn9M/4341HMGZ2P3/RIRccTzu37q93laDUWvDYaE7b9ERtPuLOCHchHwefALRfPRtYFfdD/ku8iu70Ty3vfdheAE5KPYdP5P8R3urszpOkljcEMJxDiVRtplME5GJ8C7H9/o1NHFYmfmEKIfTymn+doZYNBZIdsBw/d5nJcf8O+0/k6okPI/2ApNqMT7rhkNjI7uLONtmjb2r1L/3RqPmcPw539njUhEpHPSlF60rltm43s3p0C8xypybciw7ndva8YNfFxHMdb9Uf2vyzAsyn1tGWaBtpUdD/PPHL0QZITQtWcQH1i7wDcnZZZq3lOTm9D+jufx31VCiGJq6hDyDTBOeHx48sfiDiIgtlBCtEpR8UaIL1Xsvu4Rn5uClJSaqa6TWqBpjbvMim5NQsF1p8G9kKxya/28+VYPNGd506Tni53n6vHsQKsPujcnjUGGT0Cs+p1/p1OLWYB7r64jxNPMWrXyYk9x8mNKD1g5jgyMfO6p3DfJcPQtZU7K6RK7HFqQwE7nL8v0JGflpOl+N3Wpeje535knhN4tnHY1/MgHnzQMz1T+wSE/QUPPl4E9kqwCYjL5G0IPBeM/RcPPpiHOqcwG/Kc+UHNQGaeZ7911luPvAie57GYY+Qy1ccevG79xxzy2Oz78utXahfyZln3OEzTlt2uu7x5n/aj6PHAPus0l7nr2GNqdHNaPczrDz5WI/A+zF+1KY7H1/Bnxvu3CXwm7LJqCmzuog6h/3EChtcB/cWp2TQURGyCeznEdUFcN1r5uU5IjJyF3Lu8IRQIiGnbZ2GV23dUtjCnTt9R+dNOvCys6V8qe2kW0pdOqw6TrNmcvxA5zn0OfjDLzGatgdsfi7l9F9Zat24MBjmwI9C0dk4S2u2Yg+mvpSPjr+nIeu0OPFSyLkSfTCOd0xVdeXu8AAUf1/QhHd7595oaUGOGn5yfiYz2h7DygwV4+8BelG57AiuPdkV2UiZ2bP05/tj6h7g7uabGFTFT4LiDDar7G8YjtWxFrQJtyERn/j2j0Nm5z85wLhdzExQL8xeqMOoeu9+HTfNSNXNsK1CVcY/n+VKsCBFwVYXzUdLf3Y7pWGcBWHtd9qHUa3CaU8/cj5J3vaVjJao4CnBfCTZ6Zq/fXAqkpKFuz1gSxvzA2Y95nzpXv64ZYz3jB/m+Pg98y3NM+1c/Xn84NsAcS5dEM0IxUCuqfaxUuaoQpc6rGz12QHyOL8LPjMWTlufwreplx6cwAEOcpEizEXUIDeo82IQOLzoNFUQMKSu4Cc7asL8x/xuKMffGmtrHtKXpmPWTybUDID8Pc9cEzc/KxcIJTo3mmcVOhAQk37Wk9qi61MnIcZYp3tVAjcatfeWM8qzsrFs7CEP4Yo/zH9NxdCnmlBU4VYpsZJ/bHe1O7kD+R9NxX4l5NnrtsnHrhRzbtgP/u+kGTCiaiYeKxuGO0mIcj+ov3Ad3DP0FbsVK3PfmOHxv524MTXkS0zstx5MfARPSsnF460zc+WogTG9941EU1xn8UNf6V52z4pTgEVFDkMOCal8RXouycIxE5SdVTgGahoGeMnDIxJzqwt0cW5dR+JankBwy0SnsnL9cYdDZ+f6uo2uHYmUVqpyCNu0Kz8YH54QJziFIC+5f2VCC0i6pSO2yH1Ufu/OcorOkzPmIRT04IxXjvcPaB1+PUV2cgnpz44tk1i5WlDlhcru7PbMtp4B/1butSmx836m/hgzNUBo+vkZ/ZpxlvUE35GsMwVKUNOFnS2ITdQjd2P1GTO47ud4gYvDEV+3RcWUvjUYhQ8nbjFbk1HAm5GBy0Elocq90YE1FdQgF1G5Wm7bUmbV9V9AywZLRk4Mhpk3C4mhy44RTmxiSjwUj7sd9GcvxbEom2K//duVKT59NdPoPfBJP9shA/7OOY8eR1Xj7y0swYcD9yDJ/4QS0PdssFrkOmbj7qnzk31CM/Ot/h5l9OiH/vV/hUNKPkX3g57j/w63o0+d3WDn4h+h//I/IfWe5GXJevzAFatJApEVZOEYq6cJE58y9CI/XacYh99hGB1+HlIRE57j2V9UOoc6JtZdCUiISTZNT5Gfcwf0rrGV0vvR6pDlV2ur3wQ23xFDD9yNRJwyc18Mq895I+nVYC6xp/np8dSLGPzwDY6pfehIGXurUVctKal6zGdHoBNXXIgzNBo+v8Z+ZOsuav41Te/2k4Vcs/og6hBgyvB4oOIhO2UWoTg1kycIcYGmeGwjl2LXduVk6rTpY7DT2kWIuUC3Q5zMWhaNXVYcaa0sNS8bkZ7hsTa2swf4gat0u0IHf6VZkm3azgI59xjjR6mCfzWdmVgw6oX/ao3jy+mKsdoJjZeajuKPzIez+ynnqrD7oc25gqWgd3jEHTx6dgO9elop1n+Rj97nfwfR+qeh6wS2Y3nMYDh92gi94qLmXKVB95NRMTNMQm3FMweoJDPfYbP9TzeReKBsk8cLgz7hzZv7wPc5ZfE3B3WCTl2mSs2foLGwDNSkTTm7BXvluiVM7q117O3WChmg/XFNrtJKuSKtVy4j78fr9mZFTIqoQYgCxn4dDq71BxP6f+NeAwujTM1CIG8no1de5meDpr6k15cI0ouXPDjTlObWqJQ01o9Uj0GfkTE4IFj8ytlZtLKTOl2AYb7/ciz1mRrAoaioROFxRAA7O7t4lHUMDs6JzcjV+u30T0vvd6dS0dqCSYXO22w/l6NrOOSV1XtnecE1y7hlpvJkaTqTcIc4PVweG22ntHpvtf6ozRXRBpdtH4yx/T4ZTNDd4TU2glmXO5E1TnFt4m3ByCt/KQNNW50sHOks2U877OTrF1kaa4Hib6DMjzUtUIcQmt6T2SSZ4bBBxXqTsst5+oouiqUHtqIC3jmOa3ZYWo4FICCEfxWyOa6ysXHPRbIPNeOdmIp1VoaN/xPKdNRd8Ht7xSuD42w/F0FhrKkf2otZlrQdX4lc7V+OwU6TdcjEHakdv8+YFKOz4fXy3JwcjOOHDwDxxqHpAxd5jrC70QVJ938xgeArdYDFfmMpC273rMp3o9WJgsL/H9r+EObYoJI2dEbimJviganGbs/ZW4RXTFGcLbx4LBy1sRNW+oH6mZqi65rbhNafWyAEJ8TzepvzMSHMRVQixye03wxbWCqJILzZlXxIFL2/nR6x0MSbxq3w8fUDJd+UgB3mYNrFmEILh1H6qR8eZ2lMxCv9Rs4QZaefer+H2/9S6GDYfs2vVespRUOjESN9eNQMhQuqK7NTvOrWRvVheOg53rs4NDBwoK8BudMedyUFfmdOQYwV49O/pyHh1Cpa7zXh7dtyLca+Nww/XzjHbznZu80+0RUbPH+OO8wPLRGXvE3jik+64e0CWe01QJ2QkZqDjoSfwq22l2LtnORZUrEOfxDHIDPtpcgr+293msFr9MuuRx2G8KeOjGwHnjjQret4zUmpDHlaUufddlavygoZrO7WP6v4W59hGszBdUaf2sv6ZCPp5Kl9BXq31An0ZdfqOgpjmrH0lKNnrDZtAOO1/vwRVkTRtuf1RtUfanUJus2JhYVXoAQkxHV8TfWakWYm6Tyg4iCJ1UftAL6v3GqHIAqj26LiUG+cimcOnzdBpKwu5ZaswC3Mx1i7H6ZmeyLGLuX1JphnNfb54VKg+oWRMnsg+J7ePyYZPrT4nd7h2rWOoR9c78ejw2bilQyfs/Twf+eare7Lx0PBncXccvnWgU6dLMPCs49jo1IAC287CzP5/wq8ucxM6Kjvw7Jal6NR7JrI81wR1TH4I8y66GKU7vo3sDU9g97k/xEMDI6htmeYwd3htdb+LO7Q5oiavUGpGSj1ut7k5LcQQ6arqa1XMZIZrezra3T4jrH68ZhlnKky8vm7BGkJVrfUCr6nWcORQTOc6r6KpHTaBcHLmdw0Mhw5vCK7PcELL3X+8rgOKnLt/53hD10piPL4m+cxIcxLzF5gyTDgkO5IgYjMcg4u4DmtDDDH+rENjmvNEpPkwX3j6fpq+5VyiEnVNyPLWiMLh8zaA+C0KtjlOASTSkq3Ha6ub+QAKadZiDiGyQcRRcsEYPpy//OrANygwfDicm/O4jgJIpOWq+YYERZBEp0l+1M5+rxwFhwxDSMEj0rLV/OYQryeqew2RSKSa9JdVRUREwolLc5yIiEg0FEIiIuIbhZCIiPhGISQiIr5RCImIiG8UQiIi4huFkIiI+EYhJCIivlEIiYiIbxRCIiLiG4WQiIj4RiEkIiK+UQiJiIhvFEIiIuIbhZCIiPhGISQiIr5RCImIiG8UQiIi4ptW/3S490VERE4p1YRERMQ3CiEREfGNQkhERHyjEBIREd8ohERExDcKIRER8Y1CSEREfKMQEhER3yiERETENwohERHxjUJIRER8oxASERHfKIRERMQ3CiEREfGNQkhERHyjEBIREd8ohERExDcKIRER8Y1CSEREfKMQEhER3yiERETENwohERHxjUJIRER8oxASERHfKIRERMQ3CiEREfGNQkhERHyjEBIREd8ohERExDcKIRER8Y1CSEREfKMQEhER3yiERETENwohERHxjUJIRER8oxASERHfKIRERMQ3CiEREfGNQkhERHyjEBIREd8ohERExDdxC6EVK1bgk08+Mff/+te/mok4j88dPnzYPBYREbHiEkIMGoaMDaHPP//cTGSfs49FRESsVv90uPejsn37dmzcuNEETceOHXHuueea4LH3GT587sILL0RycjL69u3rrikiIme6mEKIAbR69WoTOA2xzXE33HCDCaSGHDlyBP/4xz+wZ88eXHnllbjkkkvcZ+rH43nrrbdw3nnn4ZprrkGHDh3cZ0REpDmKKoRs8xprQKz15OTkuM/Uj+uwb4gBNHDgQFNLChde3hDq0aMHRo0ahbZt27rP1nX8+HEUFRXho48+wgUXXKAQEhFpAaLqE3r11VfNwAPb7GYxaFgb8U62n8gux8dcl9uIBEPrs88+w6effurOCY3PHzx40NSCRESkZYgqhFiT4eQNIAYOazpsnvNONqwsrsN109PT3TnhtWvXzqxTUVGBkydPunNr43w+n5CQgC5durhzRUSkuWv9kMO9H7HOnTubGsquXbvw5Zdf4tJLL8X+/fvNYxtQHITA8GAAXXTRRWYdNt/xNiMjo1aAhcLt7ty5E506dTLrfPjhh+jatWvI9VgL2rJlixn0wPW++OIL9O7dG2effba7BPDVV1+hrKwMb775JtauXWvus+Z0/vnn12rmKykpMeHJMNu9ezeKi4vNOnwdDDk78ILzOG3duhXHjh0zTYCtW7d2t1Lj448/xrp16/D2229j/fr1+OCDD0xTI/frPT7Oe+2117Bv3z7zetm3xePga+F+Dh06ZJolgzF88/Pzzb55DCIiLUlUNSEWzN7rgrwYTnYKFRjsS+K63EakWPi2adPG9PeEwvnt27c3hTAL7WCsKb3zzjvYvHmzWYb9SwxJhhcLehbwwbZt22ZClQGblpZmmhoZDKzxMVAYIhwwkZiYiPfee89s24v75LzCwkITUpdffrkJ327dupltv/766yH3y/Xeffddsx8G6jnnnGOOmeEUapg7XwODMSkpyZ0jItJyRBVCLPSiZUfJ2dtIsMBnYc/QY+3Fi49tbYu1plBY6LNWc9VVV2H48OG4+OKLMWjQIIwcOdKEFmtFXgwHBgCX79evH4YMGYIrrrjCzGcQMZg4jzUvbq979+7mGLwhwRoQa0kMO44I5Dpcns2QnLgswyu4iZE1Ss676aabzICP/v37m+A6cOAA9u7d6y4VwG0whFhDZC1NRKSlibpPaPz48aa2E4yFcfCgBC+uw3VZMEfqrLPOMsFx9OhRVFZWunMD2BzFpjY2v7Vq1cqdW4Oj5lhTYkgFHy+b3FiAM8i4nFevXr1qNdOxNsKQYxh6m8VsDYy1HVsLY4iw+ZCj81JTU83xe3F91lxYuwkOY76Wyy67rFaocFk+ZrB5MYAYRAxBEZGWKKoQYriwf8d75m9rR5xvByWUl5ebed6aE9fhMgypxmBYsLBnjcYGBvtRGDAMBtaWQuH+OJWWliIvL6/W9Nxzz2HHjh0m3Fj4Wwyb4FoVmwMZJnwtHCzhxee8GEisNXEboYaJczs8Xh5/cAgxbIL3zWZN9hN5m+QYdPw7MEhZUxIRaYmiCiGOeGOQeAtQ1jJYu2G/h3cKvjiV63BdTo3Bgr5nz56mILa1IRbCrMVwfnBtwzpx4oSZUlJSTPNaqIlNXsHXIIWqVVF987146RX3yW0GB5TFcAoOP2IfkHfAAvG18TUygFj7Ib6PfC8YzOGunxIRac6iCiHbnGbDxYYRH7PfwzuFWobrchuNxSY1XgfEpi4W4GyKa6gmwNDgxIK8T58+IScW8PWFRbS4T9bYgkPGYm2JQRRpgNh+HwYva0G8iJdBF2rEnIhISxFVCLF5iGHCviGGC0e7BTd1BU9chthRb4OpsVhLYF8NC2A257EmwL6gcAU5C3qux+YxFvynAo+HzXbcJ5vcgjFEOMiAxxWquS4ULssQ5sAFDlJgsyRrQfU1Q4qItARRhZDFgpZNbjZUbDhZvG+HafOWy7J2FAt20nMwAK/nYQHOgjkcFt4srKuqqqr7qLxYm2LBHk+sVTEsbV8UQ8eL/VhsUuSxN2ZUG2t8rF2xJshvkeD69TVDioi0BDGVYAwWhgprRMT7bGrjfE68b0OHw5JjDSBioc1wY3McC+FIahIcZs3mrE2bNpnvo+OQbYYDLw7lBaRs1oo3hhBH9DH42If2/vvvm9rbmjVrzMWnPB5eO9QYXIfNjxxMwcER0dYoRUSai7icRtvRb7ZQ5K33PgPJO0IuVuwHYe0m0v4QjjbjF5pyuDRrPQwCBhK/ZYDX+XBb8cYaCq8lGjFihNmPHTXIJkQOhGCtsLEDCljDYvCymY+BFGlTnohIcxXz7wnJqcULYNkU6W0GFRFpqdSh0IKwP4gDEtgkx0lEpKVTCLUgDCA257G/KfhaIhGRlkjNcc0ch3hzcAOvO+Ita0D8zjuFkIicDlQTagFYA2JfEAcl8Ju7FUAicrpQTUhERHyjmpCIiPhGISQiIr5RCImIiG8UQiIi4huFkIiI+EYhJCIivlEIiYiIbxRCIiLiG4WQiIj4RiEkIiK+UQiJiIhvFEIiIuIbhZCIiPhGISQiIr5RCImIiG8UQiIi4huFkIiI+EYhJCIivlEIiYiIbxRCIiLiG4WQiIj4RiEkIiK+UQiJiIhvFEIiIuIbhZCIiPim1T8d7v24+PTTT7F582YcOnQIo0aNwgUXXOA+U78vv/wS27dvx65du7Bv3z4cP34cbdu2xXnnnYeLL74Yqamp7pIN++qrr/Dhhx9i586d+Oyzz/D5559Xb6tXr17o16+feVwf7nvr1q346KOPcODAATOP6/bo0QOXXHJJ2HVFRKRx4hJCLPh3796NsrIyVFZWmnmdOnWKKIS4/DvvvIO9e/e6c2pjAA0fPtx9FN4nn3xitlVVVeXOqeuiiy7CiBEjzPEF4/pvvfWWCa9Qzj//fFx55ZW48MIL3TkiIhKLmELo2LFjptBmALEG4RVJCLHWtHbt2uoaR5cuXdCtWzdT2HMeg4n3Iw2hkpISrF+/HmeffbbZL2swdPjwYRMwrHERa0Pc5lln1bRGcpnVq1ebY6KkpCT07t3b3GetyoYrjy8jIwMdO3Y0j8Ox67Vr1w5paWnmNhy+h1u2bMEXX3xRa//0/vvv1wlHHj/fn3/5l39B+/bt3bkiIi1H64cc7v1GY6HJ2g+b3ljwd+/eHcw0zmeBy8KxQ4cO7tK1sdBft26dCZpzzjkHgwYNwsiRI02zF8OI20pOTjaFcatWrdy1wmMNiMteddVVptDnNjj16dPHHAefZ63t5MmTJky4X2vbtm1mIjbbMUATExPNsfTs2RMHDx40E5v3uC0+1xAGKV/niRMnTEg0FFw8vj179pj7DHEGjMX5fF8ZrNw/j52vg+/9/v370blzZ7Rp08ZdWkSkZYh5YAL7SC699FJkZWWZpqqGzvatDz74wNROiOtzChU23tpKQxg411xzjSmQg9lwIwYJJy+GhcXtePt+eJ/zLO+yDWndurUJaIYIw6g+fI7LcPn6XjOfs31knBjcDGnWSG14iYi0JDGFEM/Ir7vuOgwbNswU/JHWWI4cOYKPP/7Y3Gf/CgvWeGDNob7aAAt2FuLEZjnWIry8x26X8/LOi/R1Wueee655zay11IfPcZnGvI/E5Xls4QJORKS5irkmFA32bdh+oK5du9bbZBdPDB1bULOpy9sUR+xDYo2F2C/kDSnet7U229/UGDYo2D8UqguO8/gct237sSLF4OLxMehERFoaX0KIfStHjx419xkIfFxcXIwXXngBeXl55raoqMj0dcQLa14c/k3cZ0JCgrlvsd/HNrlxiDcHObDGxIlDzjmPuAyXbQz2B3F/bMYLbgYkzuNztg8okloNg4dNcBwUwpCzTY0iIi2JbyFk8Uy+sLAQ5eXl1QU0b9ln9Le//c2MMIsVw4yjyxh8rG0wRIL7rjifQ7c5co41Ew71fv755820ceNGswyf4zK2xhQpNq9xIAO3G2r4uB1Q0dBgBwbihg0bsGbNGrz55pvmPWNw8bga03cmItJc+F5ybdq0yQxJ7tu3rxkd179//+oaAefzeVuDiQZH37HQtoU/R8pxX6Gwg5+1kFB9MpzHkXUMzWiwmY01MDZFcj8Wg5EhyecbGj1nh2Sz1sOJzZhsOmRI8r0SEWlpfA8h9s2wdsFrb3hGzxFf119/fXXTGAttfntBNNiE9sYbb1RfCMsAGjx4cMjBCyzMCwoKTA2MOFrvG9/4hpk43Ju1nx07duD111+vvpaoMWxNh8Osvc2MbFJjuEUy5Jv9St7RcQMGDDDHyRoSv3FCgxNEpKXxPYQ4dJrX5XgxmBgYFgcxsKCOFPtL2I/DGpC9homFNWtaob52h9vmV/VwP+y/4YWsHPFnaxxDhgwxE4+Ly7z33nsmTBqLtR1uw16vxPBgLY81GtaSosGaESfWhFQbEpGWxpcQ8jZ3scM+VH8GC2VbMPMMP9SoslAYQOw3sUHBUWNDhw41U33DtxkstnbC0OG1N8FYM7Oj4rhsNE2EDENun016doQgg4PbDTUsPFIMVr4/fO0iIi2JLyHkPetvTA2nISyE+bU9/Oob1jJYQ7DNfKH6eSwOhLCDJRgGoUKRAWKHdTNEoqkJEZvdGBps0uPEmheDKRY8Fr4+DU4QkZbGl1KLQ4rtdS3srwlVoLOmYS/uZOEfyYi0ioqK6tF0LOz51TuRfNkoa0j2u9dY6wpVo2CoxaO5i6PyGI58bQw+XicVqokwUqxRceJ7ZENSRKSl8CWEWPDapi3WBvj9c97mNjZT2TBhOAR/ZQ4HECxfvtwMu7ZYo+I6DAquwz4ghl0kvCPTGH6hBkLwZybsCDseP4MkWgxI1lps81ykGJAcOFFaWmomjhzke8BtsV8tliY9ERE/xPQFpsFYW2AQsLkq3BeYstDkWTsDiKHB2hC/kYABwBFt7M+xfTT8JunLLrusujmNhS5Di6HD/bBA57YYXJzPIc+274fb5MWcoSauawOANREeO0eqsVbG9bh/7oO33CcnO7Q6JSXFvLaG8JjY1MfA9V6XxPBhLYjHzZ+W8OJxcZ9ssvQGHY+N7xVfH285MZQYtDwefWOCiLREcf1ROxag//jHP0yByUK0oZ9yYGCxD8depBqMAcQvRbVNZcRrYuzFoyykuQ8WxNwnv2XBNuE1JPh3itgEx29J4FRffw/Dgz9sN3DgQPW/iIjEga8lKUPmhhtuME1ndrACawcctn311Vebn2TwBhDxQlN+4wGX44CDSJvcGsJQ4YWy/Dbw4KY8hh339bWvfc1cx6QAEhGJj7jWhERERBpDp/QiIuIbhZCIiPhGISQiIr5RCImIiG8UQiIi4huFkIiI+EYhJCIivlEIiYiIbxRCIiLiG4WQiIj4RiEkIiK+UQiJiIhvFEIiIuIbhZCIiPhGP+UgjcJfm92yZYv5IUL+mit/9db+kq2EZ3+Onr9X1Rw19+OT01PUIcSf4eavqAa75pprIvrp6+aIv6rKX3rt1asXMjIyzC+pEn9Ke+vWrdi1a5f5yW4WvlwmLS0t5M+XB+PPdfMny/mz4dwWf8BvwIAB5gf6rMOHD2Pz5s346KOPTEHftWtXXH755UhKSnKXCPxy7bvvvmuOgz8Xzl+H5S+9en9kb/v27eYXa9PT0+v8IGCsbADxfVFBFcCfaedno0+fPuan5sOJpZDn37SystJ9VCM5ObnB/UZKISR+iKk5joXp2LFjkZOTY6YhQ4aYYGJANQUWwqtWrWqS7TNcduzY4T6q8eWXX+Ktt95CaWmp+TXXiy++2Mznf9h169bV+1PgFguPgoICEy58v1JSUkwhfvToUXcJmJ8kX716tVmW4XPRRRdh3759ZvuffvqpWYYBsGHDBhNWmZmZJnwYCFzH4nbKy8vNc/EOIOL7z+PmMUr9GExvv/22uY0nfm4GDx6MkSNHmokBxL+39zMQiaY6PpFoxLVPiAUsawgff/yxO6dlOHnypDmbZQFvaz9eHTt2ND9Dzp/3HjVqlLnl2ScDYs+ePe5SdTHYWANicxWDgz8dPmLECHzjG98wQWFt27bNbItNW1xu9OjRphbE9Vmz4fHxPoOJ63Xr1s0UQAyDqqoqdyuB7XTp0sWEmJwaCQkJuPLKK+NWG2kM7pM/Pc8w4UmKSEukgQkONm/t3r3bhGhwDcKefXbu3NmdE6gB8jFrBeH+87PGxuBgs9mFF17ozg1o3bq1uWXzHIOMhQkD3OJ9Bgqb8lgDYaspw8w2//G4WDOzGPx2X97mOTm98USEtfETJ064c0RaltYPOdz7jcIzcxZ87P+xBeOxY8dM8wDP0ILPDN988038/e9/x8aNG83EQve8885znw009bz22mtYs2ZN9TIs5Hv06GGe5/pvvPGGWY7ND97n2WTG5zjZdVlgR3J2yoKbTRNclq+loqLCBBFDwAZFq1atzK3F4OExsHO+d+/e5mw4GN8LNtlxG6zheAPDy9Z2WNti7cZ28nOffH/5ert3727mMSwvuOACsz++5g8++ABt27Y1x/7OO++YY4mmFsTXwxobt8fXz4m1Qu7L4mvh/hmGDEYuw34p9o8F43vDzwELSO+gBdba2O/GEOe6dt6mTZuq98t+M+96fB/ZD8ZAD/c8Q5nHx9qgPfbgdcMdc6hjs+8La6ncpw13Lsv3g/P49+HnjX8HrsfleULD2iuX4z4ZEPy821ozl+U6PF7v8+Hwc8J9sRbsfU85j89xPl87+428x0r2feAt9xeP44vkM+P923DbfM+4HI/R+z7LmS2uIcQ+Cxo0aFB1AW4Dgh/ar3/966ZWwQ80+454a4OorKzMBMrVV1+NgQMHmoKXhQL/s7CQ5XP9+vUz/3GGDRtmlrMBxP4UFvLcvl2X/wH4nzEcnkFyIAIL1qFDh5p98T9ecAgF4zI8Xh4/m8dCNeGxcGC48D80Cz32KxUXF5vCmeHJ/6zcPkOQ/5EZLHwv7T55LPwPy9fL18PlWRgyAPiesSDhcbATmf+p+Vo4UKKxtSA25XBABN8//t169uxp3m/2Ye3du7e6QOP+eYw8Xg6o4OsOVZhTuALzs88+M9tiAcTXxn44hjQDmPvme8P9cD0eGz8DPJ7+/fub5zmPx8bj4jIsIPm+sABkbZPHxe3z78/Xxft2XVvohTpubovHw9dqC1x+tvje8pbvuV2f7zv/rgx87ofvE9dhwcpj4PHzdfJvw9dlt8eCmPP5PnBgCv/e3CZDkrf1vZ9U33vKY+EJC+fzlvvwHivx/eK6PBZ+lmI9vkg/M/Zvw+3yvbF/B/Zdsuywf0M5s8XUbsMPEwcK5OXlmYn/YdmX4S2UOY8fbO98frjZbMTCl//BiQUo51ssPDgyjIVLOFyfTVreGgDX5fbDYSHPsz0WPCy4+J8kEiz8uR5xH/WNjmMo8NhYW2IthYUWC2/ul2eQPEPkfU72PQiH7x0HflB+fr7pw7riiitMYDKs2JTIgHvxxRfx/PPPo7CwsMH3jvh6+Nq9I6JY4HB7DASGXlNhYcfj976HfI9sAcpj4/O2Nkx2YAgLMS8ux4LQYjiQtxmVz3uX8bKFrLd/hfd5UsD33m6Pt/ybNnSCUx9ui58bW/jy+LhfFt6NxRon/w+yBsztcVt8H/i+WXwtfB3ch31fw4nk+Br7mWHI8RgtBiE/9zwukZhCiB9E7+g4dtoXFRWZpjOLhQXDhMHgxeYnhoe3AOZ9Fp421DgiLXiZYPxPwzMy1sJ4xhUpNg2wpsKzcO9/kHBYyK9du9YEDM/qIlmPZ4Os/XGwAYd9swbH943vC89uG8LXZ2s3XI/buf322zFu3DgT2gwj/qdmgc7Rcgzza6+91hQGDEtboIYSrkBlMLBAi6ZwjBT3wf2zGSmYPTaeXHjPlhkKDHR+LryCmzttgcsaqw2QhvB98Pav8LXbgt2+D3ZbkRTooQSHAV8b/8b8jIf7WxGX4eecTdac+HlnzZ81G+K2eJ/vmz1Ofi74mvgZiURDxxfNZyZ4WW6fn2kem0hMIRSMQcMCl7Uf/gfhB5eFBcPEBoud2AzmxeDiGTzPVG2oNVSbIf4HYcHMoLO1MjbhhMMPP5sY+J+Tx2GPievzzJJNHDwWG6ZsrmPthUOm+Z9n+PDhpvYUDptGOLEQ89bS+Jhnhqwdcl8sPBku3Acnyz7mf2pOofA1sFBgkwpDje8/awpsmmGNwjat1Ifr8ozUL/xbMzT5PrBQZd+cLTztsTH4baHLiX8DFoLBgmukLOhYU2Rg2YKbtd5wbGHOM3Tun0HOvxcLUVuw8yyf2wze36nAz7p3iDabkIPDkMfrrWXE+3j9/szI6SeuIUT8sPNDT/xPw0KWYWKDxTuxFsXlWZgyuPiYhVI0GAzcJi+WZbB4a2PBGA4s2Fm4eCeGgz1mPuZ94tk028D5PLfvHcVWH74ubodBF+oMl/vnWSaXY0HCsGChZ/E+5/F5np0GY7izJsewYe2Ay/N9t7UGbpMnAdx/fewZabzxmCPFgp9DnNnPx+Nn7Y0FqD02BqwtdL2TtymoPnwv2LfB5XmSwkALd02NrWXxTJ7HwMd8LTxG3mcQcT4f2/e5ueGx8aSGr8E2xcXzeJvqMyNnrrh/mlhwegs+NruxMzvcGXkoXJ7rNRabqNh3Eq4Zj+HA63E4kME7sbBiOLBGwWuBeNbJ42DBxfl8zDPNSHAfPNNnk5u34OOZKWsofF/YgczlGG58rayBWbzPeTwWLhOMwchtsKPXFp5sRrJnqTxjZYERal3LW+gG4+tmsDGMo8Hj4DF4hdqPxUKSJyss4LheuGOLBptO+T4HN+N58RhYYPNzw1qTLbx5LJx4LHyPI/0M+IV/MwYma8f8vxjNiMn6NOVnRs5McQ0hNsGx6cPbB8SvMyGODvOGAms/nMieOXMkjcWaR3Afj62leDul+cG3AwXIFiBcztZkYsHAYJCwYGRT0Msvv1xrsiMCOQjg1VdfxZ///Ofq/6A8i2eBxSHIHH7OEYGvv/662RafYw2HhS5H/TGQ2OTHPjFOvM9mNT4XjO8ThyqzSZDrc+KoLNYmebbP51lL4rxQtSiLBSwLZzaHsY/M4vEx5HhGXV9HfjgsvHlMDF9bC+TfhO+lFwdU2GYj4n2GF8OTx8bCk+sE11742oIDLhi3xe1bXJ4Fc7hQJv69WHBzsmFjw4nbZAHcUE2Px09NOagjHB4r8f9PcB8PxXJ8TfWZkTNXTEO0+aFjpzJDgBPvszbhbVJjEPBDyzN7DqW2y7Kw4XI8s+J/ak5st7fPczQd/7OwELPDpTmxcGNzG5fhWRcLagaWXZeFNwsvNs81FgONx8laj90n/6OyYOcZMM+igycWVBy9xUKLhZ49Xr4eHj+DgM+xEGYhxuXZlm/DmbgsXwcLSYYLXxe3weX4n9qLIcuRddynd9QYQ4x9SParfLg9dlrzNYTDY+QJA4fX8qSAr4Ehz+MODkAWNAxY1igaCjfW0vhauF1uk8fG42WocH/cL99b73UmfH8YrLYQ5T54n8fFv4tdjvPs2Tb/Lgxdvn7vMfFYOfzbrmdfU0ODSezfnJ8zdubzlnjLQp2fDb63Vqj3hK+ffyeeFHDfPEY+b0+q7Amaxfn8/8DC2+4vWH1DtEOx++d7zfc8+G8V6/FF+pmp729j5/Nzz/3KmU3foi1yGuKJCENd33IuzZ16GEVOM6ydsfbCGqMCSJo7hZDIacb2mcZzQIJIU1FznMhpgk1w7OdhPywvpmbfjUhzpxASERHfqDlORER8oxASERHfKIRERMQ3CiEREfGNQkhERHyjEBIREd8ohERExDcKIRER8Y1CSEREfKMQEhER3yiERETENwohERHxjUJIRER8oxASERHfKIRERMQ3CiEREfGNQkhERHyjEBIREd8ohERExDcKIRER8Qnw/wGc+QUFG1KqSQAAAABJRU5ErkJggg==;" vertex="1" parent="1">
          <mxGeometry x="611" y="330.5" width="179.94" height="126" as="geometry" />
        </mxCell>
        <mxCell id="aojNN7IkyULRY6MoOH4E-7" value="Python" style="rounded=1;whiteSpace=wrap;html=1;" vertex="1" parent="1">
          <mxGeometry x="431" y="289" width="307" height="28" as="geometry" />
        </mxCell>
        <mxCell id="aojNN7IkyULRY6MoOH4E-10" value="" style="shape=image;verticalLabelPosition=bottom;labelBackgroundColor=default;verticalAlign=top;aspect=fixed;imageAspect=0;image=data:image/png,iVBORw0KGgoAAAANSUhEUgAAAR0AAAEsCAYAAAD+TGdzAAAAAXNSR0IArs4c6QAAAARnQU1BAACxjwv8YQUAAAAJcEhZcwAADsMAAA7DAcdvqGQAADdMSURBVHhe7Z0LeFXVnfZfBLkJwQBBkSBKuEhQrl4IVEFnCjgVoeOg/Wxg5is68wnar8GnIzqWiM5jYWZK+tmC34wwnYFTv2qKBalPIdUK2hi8cVMCAkGRIJcgkXC/+q13nb2SfQ4nJ+echA2R98ezOXuvvdbe6+zs9e7//7/W2avJ4cOHv4YQQgTEJd6nEEIEgkRHCBEoEh0hRKBIdIQQgSLREUIEikRHCBEoEh0hRKBIdIQQgSLREUIEikRHCBEoEh0hRKBIdIQQgSLREUIEikRHCBEoEh0hRKBIdIQQgSLREUIEikRHCBEoDfK60vLycrzyyit24XpmZqZNv+WWW/DXf/3X9lMIIUi9RIcCM23aNKxatcpuO7Hhp0sj3A6FQtX7hRAXLym7V++++y5GjBhhxWXIkCH49a9/jRUrVtiFArN161a7zn0Up9zcXFvmm0cZQv8wFIPvnoEVVV6SEKJWUhIdisj3v/99u/7DH/7QioxzoRYtWoTnnnvOrjsLh3lY5rHHHrOfdVOEGT17omfUMvj2ezHlZ0tRdtzLJoRodKTkXtFqoYVD6yY6XkPrh9DK8UMxoujQ8qEQxYeiMwWhASOR26+Tl3Yce9esQNFHFUjrMxm//F0ecpp6uwKgqng+nvpVIdrduwz5I71EIUTSJG3p0EVyLlUyAeJ77rnHlmHZhN2s7LHI/0m+tzyLOa+8iSWP5gAb5+I/f52IxdRwVGxciaUry7wtIUSqJC067KEiM2fOtJ/J4Mq4YyRPC2Q/mItRZm1FWWk4SQjRqEjJ0iGp9ES5MvUKKBuXqoW3WoMXA8ov8rb9xNpXhvkTTNqE+Sg7XY6in03B2KHhuNHQUQ9ixh98VtTm+Zho0kfPKrGboSnhfD17zjBHJt6xqreJ7/jHS1H45ETcfjPzDMXYH4dQamNSVViz4AlMvH2wPd7g2ydGntdPRQlCTz6I0V4dGduaOq8EFae9/UI0IpIWHQaC6SbVRW0B40TKxqV8L3jkzMvahrfrRRVWPD0FczZ3wt2Pzsazj41Hj4MrEPrhA5hZ7GW5cgR+UDAb+fdl280R/2s2Zpvt2QV3I5wSj3KE/mEKlmI4Jk/Px+Q7MlC+eAYmPFmIknkP44FfV2Dgg09h9ozJGNTcCIv/vI5KI5q5E1FQfByDfvCsOW8+Jt3YEqtmTcSEp4vMNxCicZFS71U8OBiQgsNgs+vF8sN9ifVgxeB0BYpeCGFFeg5yx+V4ifVg1VwUYgoW/rtpyPeMwfgHnsWCuZMx0FgqhYuXhht0WhZG3DUGOde0s0UybxiDMWZ7zF0DUaettyqEsiFzsOCfJ2H8XbnI+/eFeGpcGqoWGwvnPzriqd+8gLz7zbHuz8MLs7zzFvktMiNaTz6OUKc8LFy2AM8+MN6cNxeT/3UB5j2ag7IXf4q50SIlxAVO0qJDSyWeaLB7fNasWXadosMeKz8sm7BrVroEM56Z4S1TMfEvR2PKHzuZRvdLTOrl5akXYzDl0ZFI87YsA0Ygp4+xgcp3WIuqfhghu99vD6Vh+LDhdi37/gkYk25Xw7jzbtthpMfjo1fxqtGg3AmTkR3lU2aPG4mRpoarP1JsSzQukhadLl26WOGIF5dhT5Ubn8OucidSrkzCvV5rixBaEPKWpdjRbRIWvL4AecMjZCJ1buyBrLMOlYY0GjUfVNRfdGIcP6112GLq23ug/azBO6+Pio82YI2xt2riSL7l1nAMac2u+kujEEGStOjQfSK/+MUv7Gdt0Jqh6HBksrNsXBl3jDq5fw62bNmCLZs+xrKZ45FWWoCHJ89HaUMFUJu1iBGUbkDiHL9FAmOMqo4cNP9nY/xPXBwpxjKm7siSEBcSSYsOrRQ33oZWTKIwbyrjeyxNWyDrnmcx+6EcoHguZv7q4nApwsJUjhaZLo4UY7kx+V5EIc4nKQWSOd6G1gstl1jB4mjcaGTyyCOP2M9UyPqf+Zg8DCj5j5mYv9FLtLRFi27mY3uMOMxmX4ykHiRimTQ0mb2ykWncq9Xr13gpQjR+UhIdCo77KQNFhz99iBXjYSyHvVgUHJaJ9bOJ5MjCpMcmIaeyBHNnzfeJSV/0ZYikeCVejRCjKhQtCCE8wqZ+ZHbJsp8HjgTYST1kOEZ1B0pfLIgSWQN78n5V2ADBbiGCJSXRIU54XG8WfwBK8eFCoenRo0f1r9Bd3voJjkefycibMhBVxs2a8SsnO2kYfmeukaQSFEyaiCfmFWLpovl4YsJozG46Ag3yU6nsLIwwH0uffxxzFy1F6Jm5iPx12TmgaQ4mP5qLbPO9Zv7tWDz4zHwU/t6ce47Xk/enKui3r6KxkbLoECcm/HEne6y4TQFyQsNAsnvlBbcbioGP5GFS9yqUPD8bIe9Rn3ZHPuY9l4sRbbeicNYTmPqzQlT0egrzpufA/WS0XmTmIt8cP+fEKhRMm4q5xuM5p0Foj7SR+Xj5N7OR2w/YunQmnsibioLflqHFsDwsmD3JCK0QjYsGeXOgEEIkSr0sHSGESBaJjhAiUCQ6QohAkegIIQJFoiOECBSJjhAiUCQ6QohAkegIIQJFoiOECBSJjhAiUCQ6QohAkegIIQJFoiOECBSJjhAiUCQ6QohAkegIIQJFoiOECBSJjhAiUCQ6QohAkegIIQJFoiOECBSJjhAiUCQ6QohAkegIIQJFoiOECBSJjhAiUCQ6QohAkegIIQJFoiOECBSJjhAiUJocPnz4a289JSpWhTB3YRFK1pSgrMIkZGQhZ2AORk6YjNwhGeFMQgjhkbronK5A0bMP4PEFpajykiJJQ/bEn2LeEyOR0dRLEkJc9KQsOmXzJmL0rJLwRno2Rtw3Hnf3bocDn7yKwpdWoLQyvCvnsWVY8EBWeEMIcdGTmuicLsKMnCkIWWHJxPjnluDZO9PsLlL1hycw9oeFKOdGei7mlORjpKwdIYQhtUBy2Q6UeZYMuo3CGJ/gkLQ7x2BUN2+jsgw7yrx1IcRFT2qi08L7JK1boKW3WkNLtGjtrRJ/fiHERU2KMZ1SzB0/FgVruT4Qea+8jMk32B1h1hbg3vFzsYbrA/KwpHAysu2OOKwJYfrvNqPXd5/GuGavYeEf3sWuQya9eTr6jX0Qf3NDG2Dfavx20etYv5M7gDbdhmHcfaPQy+zyU/HRa1j8x3XY8dUxu92sdQZ63ZmL7/VPt9tCiPNH03/6p396yltPggz07liJN36/HpXYjdL1u9F+8LfQt0MzHN9ciH+cOhMrrfuVhdwZz2D8tQmYOrvX481NX6L11zvx5ge7cPVNt2PAVU2w//Od2L5hHao6tsIH/28xPm9/E24flo0rT+9B2adlWF92CQbcdA1aeYfZVfQLzFm2GSfSeuGWYTejX9f2OFKxGftbDUROj7ZeLiHE+aJe43SqVhbg4cfnooTjc6LJyMHkn/4SecMj4z214lk6aN4d4370dxjkrJeyJfiX//4QtG3a3Ph3+Me7u4fTTUrx/H/B8u3pGPZQHkZ1Zto2LJn5X/iw+S14aOp3YJMsp3Co6hTapJ3tCAohgqUeI5KPo3yfUZsWsUUlzRg3FdvLahnDUzst+91WIzgk6wb0tvGhrhg20gkOaYPBfbqaz0pU7A6nVHPiKA6e8dYtzSQ4QlwgpCg6VSjKH4ux0wpRUl6FtD5jkFfwMpa9vQwvF0zD+CEZqCovQeEz9+Le/KKkhOeqLn5hIa3Qknpx+VXoHqUbLVs5p8rRHTcPyACOrEfo5yEsX7cLxyLERwhxvklNdFbOxU9f9PrBh+Rh4e9mY/JdA5F1ZRYG3jUJz/7XPEwbFraAyl58HE/9PnHZaVZbjS5p5q3Ep/Poh/DIXdlIP7IZxYuex7NPFyD0p83WPRNCnH9SEp0Vb3kD/wxj7slFdvTAv6bZmHT/3QjLThWWrlyZtJuVOs2QcfP3kPfkdDxyzzD0SqvE5hUhPFdY6u0XQpxPUhCdMpRtrpGQdq1rCRRfk4m+3ip270WsWPO5xYhP/1HI/dFDuKU9cGzDaqz39gghzh8piE5aROz4wJFabJjPyrHBWw2OQzgUXZ1L0nE5e8qbtTQyJIQ436QgOhn21RWOpYtCKD3ubTiOl2LuwlC1SzVwSA6C+cnnZiz+t+n4l3//DZb/+V28+94beO2F57B8u6n1jcPqHqAohDjnpBTTybr3B8h1nUyrCjBh9EQ8Ma8QS3+/FIXzZuDB8RNQsMrbnz4GE+4Pqrlfi+z+nXHpl6UoLnoNr/1+JdYdbIt+dz2Ch0bXjNoRQpw/Uh8cuH0pnnjkKRRujBMi7j4S+T+fg9w+3rYQ4qKnXiOS+SKv0sWFmPeH5VizvhTl/OlDeiaye2dj0LdzMfm+HGTox55CCB/1Ex0hhEiSlGI6QgiRKhIdIUSgSHSEEIEi0RFCBIpERwgRKBIdIUSgSHSEEIEi0RFCBIpERwgRKBIdIUSgSHSEEIEi0RFCBIpERwgRKBIdIUSg6NUWIgl2YfnPn0fxfrPafhge+tEo3yyqIh6rF07HYozD0xMGeSkXL6lZOkUz0LNnz7OWGUXe/kZI2byJ4e8xYT68Gb3OpqIEc/9hKHrmJ/ZFqz4I4YkHRmOovT6Dcfv4qZi/KnJejKq1IcyYMhGjh3rXcehoPPhkCGvsXPA+Ktdg/o/Hho81dCymzltz1rQ+VYunYvD4Aqw57SU0KJ7gdDAN5+mn8bQEx1yS5SiYPh2hNd52AOxaVoDp5pyRSwGW7/IyNALq4V7lYNprW7BlS3hZ9lgOQlPOpfAUYca5ErbKpZjzHyXeRgxOV6BkwRO49zsTUfCnBCfTKZ6Je//HDBSurEKPcbnIHdfXvuJ15oQJ5jvUyEXFB0VYvhXIusPkuW8kso3krXhpBu79e794lCP05AOY+dkgPP7qMrz8cBZKZz0QOYlhZRFm/rIU43+Uh4HR85A1BLvWo9RYOL2u15M6LlaIzoEIeAL3/KZsPETR9y3jenp5GgkNFtPJeiAf04YAoeLGZu5Uoehns7EUad7kgFFsD2HKrUMx8ZlCIwe1zPEVgxV/Yn4jzY/Ow4J/zUf+vy7AkifGmCOUIfRizWSFWfe/gDeXL8CcfzZ5/nkOlrw2B+O7mR1r12C1M7m2L0eRuay5D+ZjTJ8sDLx/CsYPqcLS993b74GSF2Zj9fBpmDzMSxDnns6jkGcafe5Ab/ucsRqh54uBoQ/FtDAHTcjDqEZkdl70geSqogLMfgkY/4PcmskB/Rw/DnQZickFy7Dw72PmiMmJU2ErJLNbzUwYab17nD0VT+sWiHiNdHomMjO8dbfDTvHTF5nX2C1DFrr6p3xfW4CCokGY+vCIJGRRNBZWL1yMze2H4XvfkBlNGlB0ylBuHrw5Xc+e4aoo34tXeMvZLlLYdfLn8cdNwuWnIGTW6cJF7i/D/AlemrdMnFdrVCaS8hAefzKEinFTMe2OWpprr0mYUzgHeXdlRYpDHQwZnmsFZvlLc7HmiFk5XobC/3wVa4wsjBw5Cpk2VxRHylEybw5e/YAWUG7Y4qlmByqqTfYy7NhmRKxZc+P6lWLuz0LIfHgaRqZ7u5OCsZqoGMHC1d6+MAyCTjdPWoaZNv8unKe2OEY45hAyz+Yo1oRMepTbYdN85z2rnHnCJ7CfdbF1ZJ7qukeXjRN7iVU3d11+vtys+bB5vXpExHS8/PY6VaL4+fA5C5ZF+VleGVens/afxWqUbjG34fBvTgytwUSnKN+IwpBpyH/ALzphQZiybRqWebGfLXNyz4r9lM0zcjKnJj605bVpyHlxSrV4jJzB9DnINeu5Lt+MkSxpjj8aM7vPiSib0MR+prHOf7IARem5+Kl1exqWtDvysXDeZPQtK8C9/Y0YXj8aTyyuMt/lZcy5P1JyqkW5/+2Y+N8VGPSTl7Fw+siaOvUageFDylH4qwKUbKtA6aI5KFyVhfF3jEDZgpkIpeVh6rgUvoFtAL7gsF3GodeWxRGNbdAEk/7QMFDTen03nK/eLgUb7+8qMOwhd96o2ISt22JU0KWo3r8Zi2MIWsXKApRe7x3H9g5RcCLLPv3dXuHMsRiYjV5GKErX+QVgFyrYS7e/FOt9yas/3gz0zMbZka3OGPUjcx57ndKrv1ee3zrhdTVW9fd8dap85/n4geg1pdhsjpdxpbf9DaAeolOCmd+psS6mvJiDaT+ZFNngi0KYuSoqfWS+aXTGYllY00uU9cAC5FNDHMa6yDV5SnbUZbGEravcYb7Cpmyk8MWiCkVPT8XM4gzkPpqXooVQBxvn44nH56LkeDZG3JeL3IljkJNRgaKfP46ZKyP7nTKzuT8XY4ZnI/P4GhQ+MwWP/nyFr3cqC5Nmv2BE91U8PGooJvxyH3Kem4dp3UIwyZj0v8ejasFUjLU9YINx+98VYEV071cMVr9unso9o7txByGXDWd/Md6I1xjqya49FUD7bPTztclBE3KrG7OtW5RLMWiCEUTTBFdGWQeVHYZHiuCuClSYhsqJF6sZaK5xrUI5CNlG8Co3ra+xatjY2/dCr/aVqNjtpTmrI+Vgei+M88dkBv4FhrU31uPH0TL6zaYeohPZe7XlteFYSRHyu0XFxoIxbsKkqIdMVtccYFV5teiEiXSTprxokrbtiMoTTRYyGbyeMhHzzQMoUUrnPYzHX6xAzmOzjdidiyiIcXmmz8SKCiMWBUvwAoPEP5mNBfPzkMOu72fmYoWvWzv7Pu7Px+x5S/Dm8pcxeUgFSv7vo5G9UxkjkPdfb+JDc60/fNOI9J1pWPp/CnBw4jSM/2wmpjxTiqxHl+CdV6dh4K65eDS/0DS8eMRpQJ37IfscN4bOV2QYK6IYz0e5cmFqcyk6I8PUq7LGz7SkZ0TmQucMZFgXJ4abVwuDrjc36f6KatGhRZN+3V8gu4PvOnhilrLVcZaFZL6POT6+rDnvxUDDxXSMhbHAuE54MeQJQDjuAOMmOSFxy+hZkd3TYfdiNFYOX1YtYrSG6sY06oXMW2N11R3PKUKhOX+V+Vcya2xNvb4z09huhlUzMZrbCY7Ficn2Eqxaaz77jMIof2+S2R5uRJK9UatqOp4iSR+I3DtpuUX2TkVT9YeZmP1ZLvIezMaqt0IoH5mLx+/JRkaf8Xj8b0ea/aYOkQZVJLYBnUeM5WFdEbocNr7hEwivbi5+VLN4AxOjyLgiSnRorT39kLEi6I6Fy8Z1YYh1sTaj1Oaj6IUtJStGW0pt3XatKzXWV6R1ds65MsPInN/aavw0YCDZcE2msX8cXg/L/b54S8SSD+sUFc0Iu2bGalpQp1sUm3DMxyxG9Epmja5DMJqjxQ3ZyI5e+mSGYyicoZTblzW3uVPC9jbFo8p2itVGi9Z1hKxPl2Duz1djxEOTMLCpEfftJq1jJ/N0D5Nh1oF92BvvRrXWQMNjLZhE8bqcn64WCC+Y69XNxY/OWhIa1evFWEz+h4amWwGLH7QNW1HWqrGulScuVoyMCO7ahfWbKo310y/K+jrHBGB1Bk3Dis5n5WFrwcO6US+WGNsiWYpQQvcqWUbm20GK8d2yEZj2yhIsiV7+zesy752L2dz+xxE2d0r0MqLFnqeNy7F8pU9dzPZKGi/pQ5Bte9JLsHRRWaRG0f1atNSspGHMTTSLzmbNL0zjvGkq8myPWwY60dw/crw6BlSxb685hxH9uBrua2TR1HsgIBupt+phA7C1QoFgvMY90ePULQU6j86zQepotyySzuh3Xbp1dZZb18qJC+vCIPN6VOyPihMFgrk2w2ltLa7bWmskNJzobJ6PiVMiYzhZD+QiFyFMif5pgbFuqnuvrHVUgpVv1eSwPWHeeg1e/CZi8GERZkRYNWVYsdLIXveuJneAVK3AjLsHo+fQBxGybSsHk/+RXeZlmP/j0Zj4Y/N9n3wQY/+2wHzTNOT8/RSMt3GBg1g9bTRuH/Ugpj5j8vz4QYz+zr2Ya4Qp447JeODOGPGmjXNR8GImpj7qerfSMHzYGKQtnoOnFpWiYmMhfvrfRcj6m5EYGXdksrmZ7/Pcm4i4SnggGgPMKfVQeT1BxS/5uprXhLB4i7fusWtZKKr73N9LU9PQoq2T1QsTiNPsWo5QRLlwjOis2E8UnftnI31/KUq/9ItLWIwqN5lrm4hr5cWTInvC6olxRWu31thVfw5GQJ9DmnmfKRCOo8z0tgi7sxf4e6GMA5W/ZRkyJ4zG6J6+nEOmYdlCb93GgsrRc4pxi2aFk3icOWBXe3g7TBYmTcjFzClT0JNWEN22GeaTMSO/VWTTIypxXkgzVtfChVkomBfCisUhKzaZA0Zi8vSpmHyXk8QhuPsn41H+WyO6C9hbZfL0GYHx/+sHyPt+DjLOEg0jYrNCaPujlzHG1+OWNu4pzNv5OB7/2VgMPZWJgcPzMfvRGke3Vqx7k2G7l6ebxZHOruaUB6Kx96sCBUa4np9eHE5iD9l3YbvIa6iwY1m8HAZ2M/tG1jLmc+Vyc5znMf0dL83AuuV56/GoeCdGubq+k3Vlik2dhkWIixWjdyjEGUaC6mIQ/mLoSjzvnT+h8yYArbWnR3MoQOT3svDHt/U/RWDoV+ZCiEBp2JiOEELUgURHCBEoEh0hRKBIdIQQgSLREUIEikRHCBEoEh0hRKBIdIQQgSLREUIEikRHCBEoEh0hRKBIdIQQgSLREUIEikRHCBEoEh0hRKBIdIQQgSLREUIEikRHCBEoEh0hRKBIdIQQgSLREUIEikRHCBEoTb42eOtCCHHOkaUjhAgUiY4QIlAkOkKIQJHoCCECRaIjhAgUiY4QIlAkOkKIQJHoCCECRaIjhAgUiY4QIlAkOkKIQJHoCCECRaIjhAgUiY4QIlAkOkKIQJHoCCECRaIjhAgUiY4QIlAkOkKIQJHoCCECRaIjhAgUiY4QIlAkOkKIQJHoCCECRaIjhAgUiY4QIlAkOkKIQJHoCCECRaIjhAgUiY4QIlAkOkKIQJHoCCECRaIjhAgUiY4QIlAkOkKIQJHoCCECRaIjhAgUiY4QIlAkOkKIQJHoCCECRaIjhAiUBhGdxYsXY8+ePXb9j3/8o10I07jv0KFDdlsIIeotOhQWiooTncOHD9uFuH1uWwghmnxt8NaTZtu2bVi/fr0VljZt2uCyyy6zQuPWKTbcd8UVVyArKwvdu3f3SgohLlZSFh0KzjvvvGMFpi6ce/Xtb3/bClBdHDlyBG+99Rb27duHm266Cb179/b21A7r8/7776Ndu3a47bbb0Lp1a2+PEOJCImnRce4SLRxaNbm5ud6e2mEZxnYoOP369bNWUDyx8otOly5dMGzYMDRv3tzbezYnTpxAcXExdu7ciY4dO0p0hLiASTqm8/rrr9tAsXOjHBQWWhv+xcV5XD5usyyPkQgUqa+++gp79+71UmLD/VVVVdbKEUJc2CQtOrRUuPgFhwJDS4buln9x4uRgGZbNycnxUuLTokULW6a8vBxnzpzxUiNhOvenpaWhffv2XqoQ4kKl6VMGbz0h0tPTrQWyY8cOnDx5Etdddx0qKyvtthMkBo0pFhScK6+80pahO8bPoUOHRghWLHjc7du3o23btrbM559/jg4dOsQsRytn48aNNkjNckePHkW3bt1w6aWXejmAU6dOYcuWLXjvvffw7rvv2nVaRpdffnmE21ZaWmrFkuL1xRdfoKSkxJbh96CouUA507h88sknOH78uHXpmjZt6h2lht27d+ODDz7Ahx9+iNWrV+PTTz+1riPP668f09544w3s37/ffl/GplgPfhee5+DBg9bNjIZiW1RUZM/NOgjRGEja0mFD9I/L8UMxckssgWAsiGV5jERhY2vWrJmN18SC6S1btrSNjo00GlpCa9euxccff2zzMD5EUaRYsWGzQUezdetWK6IU1OzsbOs6Ugho0VFAKBoMcGdkZGDDhg322H54TqatXLnSilLfvn2t2Hbq1Mke++233455XpZbt26dPQ8FtFWrVrbOFKNYww74HSiEnTt39lKEuPBJWnR4k6eK68Vyn4nABs7GTZGjdeKH286aolUUCzZyWi3f+ta3cPPNN+Paa6/FgAEDMGTIECtStHr8UAzY4Jm/R48eGDRoEPr372/TKTwUIqbRsuLxrrrqKlsHvyjQwqEVRHFjjx3LMD/dSi7MS7GKdhlpMTLt7rvvtgH666+/3grVgQMH8OWXX3q5wvAYFB1agLTChGgspBTTGTdunLVmomHjiw4i+2EZlmVDTJRLLrnECsWxY8ewa9cuLzUM3Qu6TnSnmjRp4qXWwF4tWkIUpej60oVig6VwMZ+frl27RrhdtDYoahQ/v5vjLCxaM87KomjQHWTvWa9evWz9/bA8LRNaL9Hiy+/Sp0+fCBFhXm5TyPxQcCg8FD0hGhNJiw7FhPEZ/5PdWT9Md0HksrIym+a3jFiGeShKyUBxYOOmxeIEgnEQCgqFgNZQLHg+Lps3b0YoFIpYfvOb3+Czzz6zYsbG7qC4RFtNdO8oHvwuDG774T4/FCBaRTxGrG57Hof1Zf2jRYfiEn1uuqmM8/hdLAob/w4UTlpCQjQmkhYd9khROPwNhlYErRfGLfxL9GBAlmFZLsnAhp2ZmWkbnrN22OhopTA92ppwnD592i49e/a07lKshS5M9BigWFYTqS3dD4c98Zw8ZrQgOShG0WJHGMPxB5gJvxu/IwWH1g3hdeS1oBDHG78kxIVI0qLj3CMnJk58uM24hX+JlYdleYxkoYvEcTh0Xdhg6VrV9aSnSHBhw73mmmtiLmzQtYlDqvCctMiiRcVBa4jCk6hguLgNhZZWDgdNUthi9WgJcaGTtOjQ3Kd4MLZDMWFvVLTrEr0wD2Fg1QlRstAKYKyFDY7uGZ/0jOXEa7hs2CxHd4cNPQhYH7phPCddqGgoGgwKs16x3K9YMC9Fl4FmBpXpZtLKqc2tFOJCJmnRcbBh0YVyIuLEyMF1123OT+al9VMfGFRl8Jbjadhg2RDjwcbKxllRUVEdY/JDa4kNuSGh1URxdLEkiowfxqHoIrLuyfQ60aKj9URLj6O0Wb42t1KIC5mU71oKCUWEFg/hOl0npnPhuhMZdhPXV3AIGynFjO4VG10ilgK7vemefPTRR/b3XOxCpxhwMB4H7NFNaWgoOuxxo9AxBrZp0yZrna1atcoO9mN9OHYnGViG7iSD3wxmp2oxCnG+qfej0vVOuUbAT/86Bcjfg1VfGMeg9ZJoPIO9QfwBKLuvadWw4VOAOIqX42x4rIaGFgjH8txyyy32PK5Xjy4hA9e0+pINANOCotDSbaMAJeqaCXGhUa/36Yhg4YBDupZ+t1aIxoaCAo0ExnMYQKaLxUWIxopEp5FAwaF7xnhR9FgeIRoTcq8uYNjlzmA0x/3wkxYOfzMm0RGNGVk6Fzi0cBjLYRCZv2yX4IjGjiwdIUSgyNIRQgSKREcIESgSHSFEoEh0hBCBItERQgSKREcIESgSHSFEoEh0hBCBItERQgSKREcIESgSHSFEoEh0hBCBItERQgSKREcIESgSHSFEoEh0hBCBItERQgSKREcIESgSHSFEoEh0hBCBItERQgSKREcIESgSHSFEoEh0hBCBItERQgRKvWf43L17N7Zs2YJ9+/bh8OHDuOyyy9CxY0f07NnTToWbLKWlpVi9erW3FZuuXbti6NChZ02xW1lZaef83rt3Lw4ePIiTJ0/a+qSnp6NXr17o3LmznRdcCHH+SFl0Tp06hbVr19pGzsYdDQUhKysLAwYMQLNmzbzUutmwYQPWrFnjbcUmluhQ9IqLi63YxIJ5e/TogYEDB+KSS2TgCXG+SFl0/BYJrYlu3bqhffv22L9/P7Zv326tHjJo0CBkZ2fb9UR47733sHnzZrRs2RJXXXUVmjdv7u2poXXr1tZy8YsZReedd96xdenUqRPatm2Lqqoq7Nq1CxUVFTYPhYeiw7KJwO/B8i1atLDfgZ/xOHHiBDZu3IijR49aq4rXxLFp0yZ89dVX3lYYit/ll1+Oq6++2n5fIS4GUhIdCsrbb79tGzoby4033ohrrrnG2wt89tln+OCDD3Ds2DHrat16661WDBLBiU6HDh1suTZt2nh74nPo0CEcOXLECo6fM2fO2LrwmIT1HDJkSELWlxMdwnJ1uYt0NfndSSzRoQimpaVVW1qsL68RxaxPnz4SHnFRkJKfwSf58ePH7Xq7du1wxRVX2HUHt5lOmI/5E4FuGhshYewlGTeI4hQtOITHoCVB64icPn0ayehs06ZNrYVEgWXZ2uA+5mH+2urNfddee621tLjQ9aQ48RqxrBAXAymJDgXBBWRjNTJuM5348yaCEwSWT6ZcPHgsV59UjksrjVZJbfEiwn3Mw6B1MsdnftYpnqAJ8U0iJdFhvIQLOXDgwFmxCvYiMZ3489YFXSHX+BjLSSYAHQ+6SE4wMjIykj6uEwYeJ5aVxDTuo0XkLLxEoVDxeyfqfgrR2ElJdCgI7Jlq1aqVje+sX78eX375pW18/Fy3bp1N537mixUMjgUFh8FYsmPHDrz00ksIhUJYtGgRXn/9ddtTxl6zRGBdGEP58MMPbTyF0M2ie5MsjLUwFsO4kQuQ+2Ea9zEoTBKxWig0dKm++OILK2oMwgtxMVCvcTrl5eW2B4uNOxo2UvZcZWZmeil1w6f+W2+9FTe+wR6tm2++OWaAubbytLQ4bii6x6suGEjmmJ/evXtbkWAwmpZStHB9+umnVmyvu+46G7+iOCbSe0U3jMdjkDqZ+JUQjZmU73RqFRtYbY2F6bQA2FgThRYCg8FsvBQWihbH1vhdFloGtKQStXjo8nChINEaSRXWgeJF4XBBdMLAN91J7q+rp43XhNYQrRouDG5T1GgpJhpsF6Kx0/Qpg7eeMBQSWjhs/Gx0fFpz/AtFguvshXKuA9fZ1ZxIcJVdx7QQaM2wy5zHoqVEK4UNlmOAeG6ek402OlbEc7Ahswy76hkn4fkpFKzPzp077X7nBtUF41IUTh6LLhaPz+Ownk5g2E3OfG6sDcWNIsS6+c/DchRKWk3s3eP34yePw3FEFESmyeIR33RSusMpJm48CkcH33777dblYEOjq8DxNWyEhK4G3ZT6wIbYt2/f6mNSdKJdFULXiYLDOnAwH8fj3HXXXXYckYs/cVBjLHcwEWjN8DgUCQoIBY1CSCGLFsBEoTBxoaUja0dcDKQkOuypceNpKDrRgWJus+HTrWHDpDWQjJsVCwqP381K1FWidcJYDi0owthLdMwnUfh9aGHRmqHo0cKhUNAScl3yqcDrRXe1vtdIiMZA0qJDEWGjc9QWmOXT342wZY9UQ49DSSYgHC1YTjBTgS4fRYKxGC78jvXteeL1oTjKtRIXA0nf5Wwc/qd6bQFdClN9Gnc0PA+tFEcy7gwtCL9L5cQwFRjPoTvEcT88JuMwiQ4JiAUtJi5027gI8U0nadGhheF/sn/++edniQu3t23bZq0iwvx0TQjdohUrVtixN278jINjcxiEjYaCwx9SMpZEXBDWwfOwrDtfNOzSdmVp8SQaSK4NWju0Spy7lSi09lgXdr1z+eijj+w14LHoptbHRROisZDSOB0KR0lJCfbs2WO32YgZw2FPDIO1FAAXN2GjHDZsWLV7w+5hLoTluI+D4wiDvGyIjJGw65y9TwzUMibkAsds6DfccEPEL9cpNvyFOfOyp4yiQHGkJcL4k/9X5tFl4+Efp8NxRw5eMooFz8GeNT88V6LjdCg2vAau50uIi4GUBwfSIuGvt53wxIIWCcfb8NNRl+jEe4EX3RgKBhd//MOJDsWuNmorK4QIlnqNSKbbQ/eKFgGtDPbkMC5Bq4buQvfu3avdKgetJIoV4zPsBudAQActE7odtC4YM6GYsDzjN3SnaFX4LQ4/tCK2bt1qLSweh8FZV5bjfjjIsK7Be0KIc0+9REcIIZJFfoYQIlAkOkKIQJHoCCECRaIjhAgUiY4QIlAkOkKIQJHoCCECRaIjhAgUiY4QIlAkOkKIQAlEdCqOhX/lLYQQ50R0th/6LEJo3tq9MmK79KtSb00IcbFxTkSn4tg+fLDvA28rEgrQ9kP1e1G7EKLxck5EJ/vy8Euyoi2aI6eOWIvnxo43eilCiIuNc/ZqCwoMad2stRWajJYZEWlCxMO9gZFwamq+DVLUDSeC/Pjjj+3bKC/Ua9ZgokO3qaMRFmflNBR8SRinCo7mtttuq54Hq7FQfrjcWn+HTh20rzy99JLmGNRxEDJbx556ee3+tSir2op2zdvhtiuHo7nJXxv+Y5s/Ky5vfjkGtB+A9i3C73DednAb1nxZ+1sZWzRtiRGdR6BNszbYf3y/dY8Pnjxo6ngp+lzeBz3TIl/Lyv2HTx3Ct664FU2bNOy7nSk4nFct+jWxFzN8UR5fUHf99dfbyQFqo6FEx72XnK8f9sNXCPfp0yep2ViiSdm9otXCm5yfzm3aaLbPRZCYb/8bPXo0cnNz7cKZRClEFKRzAWeyWLZsWYMef93+dXhv37tWFFo3u8wK9Nfm34nTJ7wckVSeqMSOw7W/ftXPViNM7+17zx67zaVt0dIISOXxSqyqKMGBEwdsnmZNmhlhaXHW0vSS8M3TqmkrtLykpRGSw3i3YhWamfRbr7wVV7a6Ahu+2oAvjoRfbE92HdmFvcf2oO/l1ze44BC+VZLvjOY0RqJ2+N7t6MkNGgIKHN/uScHnhJVu4Sy+0W8CTYWURafi2F4rMiuNhUPuzPwr+1mb8NASig4uM98fyv9gBSsZ+NpSvg6VL2xvDJQfKcenxtKgGNze+Q6M7jIaw43lcvfVd6Nbm5qXtztOf30aGyo/xskzFKT40zFT8DdXbbbr/dL7Y+RVI/FX5m+RlZaFo6eOVf8trm5zNe7qOiZiGd3lTrS7NA1Nmlxi81No+Lc4Yc5Li7VTy07Gysm2grXX/L3JqTOnsOnARnQx1lnHlh1tmjj38CX/gwcPjmvlNAS0Mvm6YL5L3D+xAOG5+Xrh+lg5JGXRyTA3ZDhOc7hO4XFd6NFd6czH8smKTmPizNdnsK2qDGeMVZN9eV+kNw+/hJ40Mf9iWQqfHvwU+47vMw27i7FE4lsSVSerrEi0ubSNFRbHNW2uMe7YpdZicrG0aHYe2Wn2f2WEp121i8f6NjUiw+MRWkMtzeLYenCrFcXe7Xp7KeKbAl0zWvecieVcurVNnzJ46wnDm5hmOG/sA+am5ULzm9v0/bdWbcE+T0goTG4/6WbyXGbcCx6D+QjzcIkFp+6lRUMf1ZnbvDgMMtJnjfZb33vvPbz55pvVs05wxgn/7J50nd544w2sWrWqOg/n6erSpYvdz/J//vOfbT6amf79fFE893FxZan68XznAycPYPOBzWjetLlxR/raGEk89h3bh9VfrrYxmWvbdrfCwFgOr1ssgTp06pC1pHhcXn+X59TXp+zQhFNfn8QVxkXiNfdD4VhfuQ5HTx9F3/S+1bEfitTuo7txVavO1g3k36nsYJmNK7UyltrHlR8h25c/Gfh3W7dunb2xy8vL7cK5wPg3InyhPq8pX/DPa825yjjrCGcTiZ7BgzGHDRs22P2cssgPXQ5OPeTKubyccyzWeYk7N2cU4f7o8/Je4D66F4yZsG50+/n05z6e0x27tjqT6LoRd27W018n5mUch9+P5+A9z3I8Pqdq4n3JhefkrCzcR2ip8J5nWVcvntPVtzZ4XLY3TqhQX2smHimJDuMTjCMQPr3jCQ9vWvdJnOhsiRKmZERnzZo19nPAgAHVE9Q5QeAf7s4777T+J/+AjP34hWfLli1WQG699Vb069fPzhTBqW84CyjFg/s4cwTNzBtvvNHmc4LDaW442wWP78qyIbk/dixosTDIS8vhDE7jnb0ltuHy+x8/fdx+70uMe0OOnT5mYzNfm5w3d7zFCgMFJZ7oUFwY+zlhjpXWPM2KA/n80Of44ugXxnVqYi0mZ7k4KCwMUvNv0Tf9eutaEVpWPGfViSp7PNaT1hSDyZ8c+AStmrVOqbOA15PXmbN6MBiamZlpn6YUIM78wYbFBsFrzRlD+Hft37+/nT8sVuPl34uNivmiRYfp7u/JTwZEKRa8X9x5+fd0T3PWjbOQsLExeM2503gMLk4ceB+ynvx7s/50753gMB/ryrnfWJaiyfstVr3ZgcD83O8EgKLDOBb3ufPxPDt37rTfn8Fbnp8PQmeF8HvwOjH2xe/Fe5FCQTGl6PAcFBl3rVl3tiMevzZBoajyfuE5YtW9oUjpyBnGl6dbxCfpZ8ZlurHjTbbxOFcrlmsVjROcROAFY2A3FArZharN6Wv8QS2mcRoafzqFqlevXvYJx5uM0Ff193rxhuUfln/AeLA8bybeVA6W5fHjwUDxGSMebLibTKNtaxo/heG0EQsK90dGgAgF5sMvP7T5eqX1rhaPuqBF1NlYJSz//r73sWznMrt8VLneum+1wb8dy3RufZWNNTnSLk3D4A6DrQX1py/esLGcQR0G4eipo7ZudKsojK9sf8Usi/DW7resWMaDDwLe8NETELLxsKHy78uGdy5gI+R0RP4Hg2u0xNWNDyZnsbJRsp60Ivj0d1DAWM7faHlPUBScgHBfPEuB52aD9h+XgsN01pULcdeD6anA7+O/1hQl1v9cXedkSEl0+NRlgLE24aHQNCTRvVecoK+4uNi6Qg53U0c/9TjXlTPXHVxfuXJltYjxKRedJxoKGa0cWll8iiQLBeAWY70wkPyXV30bN6T3s08VWoe0Aik+e4z10d24VD3SenilEmNgh4GmTE9jCTXD4ZOHbFymX/t+xippZf7ATc5y6dgV/uXxL60F1fWyrl5qDVe2utIGo++55m/sZ4cWHfBJ1SfIaptl/97svWJ3/ID2A607tm7/Wq9kbPiEZsN3kyr6idUIGxJaQpxokV3wsRqcqxsbpR+KCOvF/Q5uO3Fx8J7gw44WTyKwPEWK9xuhRUNxo+BRcFwdeV7WO9WppqOt71jf53yRkuhQVGhiRwsPYwBBQGGh+0TrhgLgrBCKhxMSt0TPGEqheumll+wf2YlYXdYKoegMHz7cCpuzuugu1EXYdWpiLRfGVhydW3e2jZ5BYFoTdMFoXtPlWfTZb+1SvOfPOH3mlHFdD2Dp56/i7T1ve6UjodvVv31/jL16rE8oOuKksbKaGcFhd7ifXUd3WdeurXGfaNnUxaYDm9DC1JVuGut6RctOVhy5cJ3B6HjWDhsWn7LnA1ocnEqaDy7+vRjL8wsE68b7x+1zCx8u0Q+hWCJAa4KDF3kvshxjLbSe4kFB4PgXnpsiw2NSkClGtHpYnukU5NospnMBBZQC7Kytc0XSokPBYdc3u7r9wsOeqIa2cOLB+A5vAuKsEIqHExL/QiuJ+Rk/4M3BbbpZqcBpknnM2267zQqa39qKRdtL2xpLoxlOnTlp4y/ROEuEgeboMTQcPGhtJCNczc02e6MShTGbE+ac7C2LHgG+9yingv46Ip5UGwxsU6Sua9cHZ8w/uostjQXl4Dq70WN9N4d7yjYkbIx+97ou2NXLsSZOIBhgJawbj8P7wT8mxS3R3cax4AOMefkgZKNlsJyCUhs8p3N1nGvF70MxotAxvTbL8FzC8wXhgiV9J7CrPNyrcbhaeGoLAsfC5fXHeS5L4WcRzix20I3i1MbJmo/Mz3LJwrgQBynW5ZaxO5oWRZVxaRjcddBFoZVDQeA14fia6HE0N2fcbAO7aUa4RnUZhVsyhnilI2G8hQMNHXSdaDGx7LVtr/VSw7DXkZYTA8d1/d0Y89nw1cc2ZkQrjeN1WO6kETPHMXNudqnHGy3NRkZiuVC8wXmjp9rAeO39lgUbe/QoWj8UCFqrrly8uiULj8UxZCSe6PAByAAw3TK6Vu67szzvaabzgeo6ToKC4keLkA/nePWvL0mLDhsJB7b5hSfRcTaMBZHo/C49UehS0fz1x3AYkCTvv/9+hAjwAnIh7o/I6L6D3Z/RMRpnOTFO5KA4sVvTwXOw14P54j1x2UivS7vOukDson79iz9GBHoZNI7XYKM5eLLKXvNXjbtFV4cw3rLk8yV4c9eb9tgrd6/A8TPHcW2ba218xg9jMLSA+LOHulwr/nTiuBHG69qF55tnwLmjcdsYh+I+LntMHZyrWBtsTBRpWhh+14aCw1hLquNCnJvCXh6Hv9OAsPFs27bN2woHjnle/s1oXbBuvIdYN/49HczHcn5BiwXz+BuoEy8nZrHgefl9WQ+/uPCT20x31k88eO85N62hYM8t68B7nfXww226oXVdk7pI+bdXDH6yp4rCkyh0xWgZOReNUHDi/eqcgpHob694s7Fbm11/DnZtDh06tFoYoo/H41BcaLHUlo9uG7seue0XKKbT3UoEuilr9q+2QVxCt2tg+0FxR/XSRVpVsQptjMC7315RdP68p9haG0M6DbGjhjmOZuNXG22cpkkTY/U1a2uvc+ZlZ/+miz9p2GTydjDnve2K22p1r3ie4r3voI9xq/yjpmmdsZdsj3HRKJo8B3u3YnXnR8Ob9pNPPomIGcT6MSddH/4tE/mND0WMguHg8eiyuPI8Fx8sfiFizw7dLT8UHPcDU4e/bjwP6x9dJ9aVlomD909dv48i7lpQcP0unPs+0deF6bz3/Mem2Ljv5s5LYv32yuWlwCbiMsa6HiS6BzIV6vWDz2SEh6Y8Gw5xL/WitUTBScY9E0I0buoV3fO7WvHgfic4HMPj3CsJjhAXHw3yagtaPOwyZw+WH4oNTXOa+oRiQ7eKaRQbCY4QFx8N/hIvChB7SEi0qFB0JDRCXNw0uOgIIUQ8GnbElhBC1IFERwgRKBIdIUSgSHSEEIEi0RFCBIpERwgRKBIdIUSgSHSEEIEi0RFCBIpERwgRKBIdIUSgSHSEEIEi0RFCBIpERwgRKBIdIUSgSHSEEIEi0RFCBAjw/wHPZBzUm79zIAAAAABJRU5ErkJggg==;" vertex="1" parent="1">
          <mxGeometry x="511.9" y="525" width="167.2" height="176" as="geometry" />
        </mxCell>
        <mxCell id="aojNN7IkyULRY6MoOH4E-11" value="C" style="rounded=1;whiteSpace=wrap;html=1;" vertex="1" parent="1">
          <mxGeometry x="442" y="475" width="307" height="28" as="geometry" />
        </mxCell>
      </root>
    </mxGraphModel>
  </diagram>
</mxfile>
